<svg width="257" height="100" viewBox="0 0 257 100" fill="none" xmlns="http://www.w3.org/2000/svg">
<path d="M116.059 48.2976C115.669 48.2976 115.29 48.2374 114.921 48.1168C114.558 47.9963 114.261 47.8338 114.029 47.6294L114.392 47.0084C114.576 47.1814 114.816 47.3229 115.111 47.4329C115.406 47.543 115.719 47.598 116.051 47.598C116.472 47.598 116.796 47.5089 117.022 47.3307C117.249 47.1525 117.362 46.9141 117.362 46.6154C117.362 46.411 117.312 46.2328 117.212 46.0808C117.112 45.9289 116.938 45.8136 116.69 45.735C116.448 45.6511 116.114 45.6092 115.687 45.6092H114.432L114.724 42.7321H117.844V43.416H115.016L115.427 43.0308L115.198 45.3026L114.787 44.9253H115.853C116.406 44.9253 116.851 44.996 117.188 45.1375C117.525 45.279 117.77 45.4755 117.923 45.7271C118.075 45.9734 118.152 46.259 118.152 46.5839C118.152 46.8984 118.075 47.1866 117.923 47.4486C117.77 47.7054 117.538 47.9124 117.228 48.0697C116.922 48.2216 116.533 48.2976 116.059 48.2976Z" fill="#DF2429"/>
<path d="M121.068 48.2976C120.636 48.2976 120.249 48.1876 119.907 47.9675C119.57 47.7474 119.301 47.4277 119.101 47.0084C118.906 46.5892 118.809 46.0808 118.809 45.4834C118.809 44.886 118.906 44.3776 119.101 43.9584C119.301 43.5391 119.57 43.2194 119.907 42.9993C120.249 42.7792 120.636 42.6692 121.068 42.6692C121.494 42.6692 121.879 42.7792 122.221 42.9993C122.563 43.2194 122.832 43.5391 123.026 43.9584C123.221 44.3776 123.319 44.886 123.319 45.4834C123.319 46.0808 123.221 46.5892 123.026 47.0084C122.832 47.4277 122.563 47.7474 122.221 47.9675C121.879 48.1876 121.494 48.2976 121.068 48.2976ZM121.068 47.598C121.357 47.598 121.61 47.5194 121.826 47.3622C122.047 47.2049 122.218 46.9691 122.339 46.6547C122.466 46.3402 122.529 45.9498 122.529 45.4834C122.529 45.017 122.466 44.6266 122.339 44.3121C122.218 43.9977 122.047 43.7618 121.826 43.6046C121.61 43.4474 121.357 43.3688 121.068 43.3688C120.778 43.3688 120.523 43.4474 120.302 43.6046C120.081 43.7618 119.907 43.9977 119.78 44.3121C119.659 44.6266 119.599 45.017 119.599 45.4834C119.599 45.9498 119.659 46.3402 119.78 46.6547C119.907 46.9691 120.081 47.2049 120.302 47.3622C120.523 47.5194 120.778 47.598 121.068 47.598Z" fill="#DF2429"/>
<path d="M128.362 48.2819C127.936 48.2819 127.554 48.1902 127.217 48.0068C126.885 47.8233 126.624 47.5718 126.435 47.2521C126.245 46.9324 126.151 46.5656 126.151 46.1516C126.151 45.7376 126.245 45.3707 126.435 45.051C126.624 44.7314 126.885 44.4824 127.217 44.3043C127.554 44.1208 127.936 44.0291 128.362 44.0291C128.741 44.0291 129.078 44.1051 129.373 44.2571C129.673 44.4038 129.905 44.6239 130.068 44.9174L129.491 45.2869C129.355 45.0825 129.186 44.9331 128.986 44.8388C128.791 44.7392 128.581 44.6894 128.354 44.6894C128.08 44.6894 127.835 44.7497 127.62 44.8702C127.404 44.9908 127.233 45.1611 127.106 45.3812C126.98 45.5961 126.917 45.8529 126.917 46.1516C126.917 46.4503 126.98 46.7097 127.106 46.9298C127.233 47.1499 127.404 47.3202 127.62 47.4408C127.835 47.5613 128.08 47.6216 128.354 47.6216C128.581 47.6216 128.791 47.5744 128.986 47.4801C129.186 47.3805 129.355 47.2285 129.491 47.0241L130.068 47.3857C129.905 47.674 129.673 47.8967 129.373 48.0539C129.078 48.2059 128.741 48.2819 128.362 48.2819Z" fill="#DF2429"/>
<path d="M136.286 44.0291C136.623 44.0291 136.921 44.0946 137.179 44.2256C137.437 44.3567 137.637 44.5558 137.779 44.8231C137.926 45.0904 138 45.4284 138 45.8371V48.2347H137.242V45.9236C137.242 45.5201 137.147 45.2161 136.957 45.0117C136.768 44.8074 136.502 44.7052 136.16 44.7052C135.907 44.7052 135.686 44.7576 135.496 44.8624C135.307 44.9672 135.159 45.1218 135.054 45.3262C134.954 45.5306 134.904 45.7847 134.904 46.0887V48.2347H134.146V45.9236C134.146 45.5201 134.051 45.2161 133.861 45.0117C133.677 44.8074 133.411 44.7052 133.064 44.7052C132.816 44.7052 132.598 44.7576 132.408 44.8624C132.219 44.9672 132.071 45.1218 131.966 45.3262C131.861 45.5306 131.808 45.7847 131.808 46.0887V48.2347H131.05V44.0684H131.776V45.1768L131.658 44.8938C131.789 44.6213 131.992 44.4091 132.266 44.2571C132.54 44.1051 132.858 44.0291 133.222 44.0291C133.622 44.0291 133.967 44.1287 134.256 44.3278C134.546 44.5217 134.735 44.8178 134.825 45.2161L134.517 45.0903C134.643 44.7707 134.864 44.5139 135.18 44.32C135.496 44.1261 135.865 44.0291 136.286 44.0291Z" fill="#DF2429"/>
<path d="M92.3643 93.0068C91.9747 93.0068 91.5956 92.9465 91.227 92.826C90.8637 92.7055 90.5662 92.543 90.3345 92.3386L90.6978 91.7176C90.8821 91.8905 91.1217 92.032 91.4166 92.1421C91.7114 92.2521 92.0247 92.3072 92.3564 92.3072C92.7777 92.3072 93.1015 92.2181 93.3279 92.0399C93.5543 91.8617 93.6675 91.6233 93.6675 91.3246C93.6675 91.1202 93.6175 90.942 93.5175 90.79C93.4174 90.638 93.2437 90.5227 92.9962 90.4441C92.754 90.3603 92.4196 90.3183 91.9931 90.3183H90.7373L91.0296 87.4412H94.1493V88.1251H91.3218L91.7325 87.74L91.5034 90.0118L91.0927 89.6344H92.159C92.7119 89.6344 93.1568 89.7052 93.4938 89.8467C93.8307 89.9882 94.0756 90.1847 94.2283 90.4363C94.381 90.6826 94.4573 90.9682 94.4573 91.2931C94.4573 91.6075 94.381 91.8958 94.2283 92.1578C94.0756 92.4146 93.8439 92.6216 93.5333 92.7788C93.2279 92.9308 92.8382 93.0068 92.3643 93.0068Z" fill="#DF2429"/>
<path d="M97.3735 93.0068C96.9417 93.0068 96.5547 92.8967 96.2124 92.6766C95.8755 92.4565 95.6069 92.1368 95.4068 91.7176C95.212 91.2983 95.1146 90.79 95.1146 90.1926C95.1146 89.5951 95.212 89.0868 95.4068 88.6675C95.6069 88.2483 95.8755 87.9286 96.2124 87.7085C96.5547 87.4884 96.9417 87.3784 97.3735 87.3784C97.8 87.3784 98.1843 87.4884 98.5266 87.7085C98.8688 87.9286 99.1374 88.2483 99.3322 88.6675C99.527 89.0868 99.6244 89.5951 99.6244 90.1926C99.6244 90.79 99.527 91.2983 99.3322 91.7176C99.1374 92.1368 98.8688 92.4565 98.5266 92.6766C98.1843 92.8967 97.8 93.0068 97.3735 93.0068ZM97.3735 92.3072C97.6631 92.3072 97.9158 92.2286 98.1317 92.0713C98.3528 91.9141 98.5239 91.6783 98.6451 91.3639C98.7714 91.0494 98.8346 90.659 98.8346 90.1926C98.8346 89.7262 98.7714 89.3357 98.6451 89.0213C98.5239 88.7068 98.3528 88.471 98.1317 88.3138C97.9158 88.1566 97.6631 88.078 97.3735 88.078C97.0839 88.078 96.8285 88.1566 96.6074 88.3138C96.3862 88.471 96.2124 88.7068 96.0861 89.0213C95.965 89.3357 95.9044 89.7262 95.9044 90.1926C95.9044 90.659 95.965 91.0494 96.0861 91.3639C96.2124 91.6783 96.3862 91.9141 96.6074 92.0713C96.8285 92.2286 97.0839 92.3072 97.3735 92.3072Z" fill="#DF2429"/>
<path d="M104.668 92.9911C104.241 92.9911 103.859 92.8994 103.523 92.7159C103.191 92.5325 102.93 92.281 102.741 91.9613C102.551 91.6416 102.456 91.2748 102.456 90.8608C102.456 90.4467 102.551 90.0799 102.741 89.7602C102.93 89.4405 103.191 89.1916 103.523 89.0134C103.859 88.83 104.241 88.7383 104.668 88.7383C105.047 88.7383 105.384 88.8143 105.679 88.9663C105.979 89.113 106.21 89.3331 106.374 89.6266L105.797 89.9961C105.66 89.7917 105.492 89.6423 105.292 89.548C105.097 89.4484 104.886 89.3986 104.66 89.3986C104.386 89.3986 104.141 89.4589 103.925 89.5794C103.709 89.7 103.538 89.8703 103.412 90.0904C103.286 90.3052 103.222 90.562 103.222 90.8608C103.222 91.1595 103.286 91.4189 103.412 91.639C103.538 91.8591 103.709 92.0294 103.925 92.1499C104.141 92.2705 104.386 92.3308 104.66 92.3308C104.886 92.3308 105.097 92.2836 105.292 92.1893C105.492 92.0897 105.66 91.9377 105.797 91.7333L106.374 92.0949C106.21 92.3832 105.979 92.6059 105.679 92.7631C105.384 92.9151 105.047 92.9911 104.668 92.9911Z" fill="#DF2429"/>
<path d="M112.592 88.7383C112.929 88.7383 113.226 88.8038 113.484 88.9348C113.742 89.0658 113.942 89.265 114.085 89.5323C114.232 89.7995 114.306 90.1376 114.306 90.5463V92.9439H113.547V90.6328C113.547 90.2293 113.453 89.9253 113.263 89.7209C113.074 89.5165 112.808 89.4143 112.465 89.4143C112.213 89.4143 111.992 89.4667 111.802 89.5716C111.612 89.6764 111.465 89.831 111.36 90.0353C111.26 90.2397 111.21 90.4939 111.21 90.7979V92.9439H110.451V90.6328C110.451 90.2293 110.357 89.9253 110.167 89.7209C109.983 89.5165 109.717 89.4143 109.369 89.4143C109.122 89.4143 108.903 89.4667 108.714 89.5716C108.524 89.6764 108.377 89.831 108.272 90.0353C108.166 90.2397 108.114 90.4939 108.114 90.7979V92.9439H107.355V88.7776H108.082V89.886L107.964 89.603C108.095 89.3305 108.298 89.1182 108.572 88.9663C108.845 88.8143 109.164 88.7383 109.527 88.7383C109.928 88.7383 110.272 88.8379 110.562 89.037C110.852 89.2309 111.041 89.527 111.131 89.9253L110.823 89.7995C110.949 89.4798 111.17 89.2231 111.486 89.0292C111.802 88.8353 112.171 88.7383 112.592 88.7383Z" fill="#DF2429"/>
<path d="M2.02981 93.0068C1.64017 93.0068 1.26106 92.9465 0.892485 92.826C0.529173 92.7055 0.231678 92.543 0 92.3386L0.363313 91.7176C0.547602 91.8905 0.787177 92.032 1.08204 92.1421C1.3769 92.2521 1.69019 92.3072 2.02191 92.3072C2.44315 92.3072 2.76697 92.2181 2.99338 92.0399C3.21979 91.8617 3.333 91.6233 3.333 91.3246C3.333 91.1202 3.28298 90.942 3.18293 90.79C3.08289 90.638 2.90913 90.5227 2.66166 90.4441C2.41945 90.3603 2.0851 90.3183 1.6586 90.3183H0.402803L0.695033 87.4412H3.81478V88.1251H0.987263L1.39796 87.74L1.16892 90.0118L0.758218 89.6344H1.82446C2.37733 89.6344 2.82225 89.7052 3.15924 89.8467C3.49623 89.9882 3.74107 90.1847 3.89376 90.4363C4.04646 90.6826 4.12281 90.9682 4.12281 91.2931C4.12281 91.6075 4.04646 91.8958 3.89376 92.1578C3.74107 92.4146 3.50939 92.6216 3.19873 92.7788C2.89334 92.9308 2.5037 93.0068 2.02981 93.0068Z" fill="#DF2429"/>
<path d="M7.03894 93.0068C6.60717 93.0068 6.22017 92.8967 5.87791 92.6766C5.54093 92.4565 5.27239 92.1368 5.07231 91.7176C4.87749 91.2983 4.78008 90.79 4.78008 90.1926C4.78008 89.5951 4.87749 89.0868 5.07231 88.6675C5.27239 88.2483 5.54093 87.9286 5.87791 87.7085C6.22017 87.4884 6.60717 87.3784 7.03894 87.3784C7.46543 87.3784 7.84981 87.4884 8.19206 87.7085C8.53431 87.9286 8.80285 88.2483 8.99767 88.6675C9.19248 89.0868 9.28989 89.5951 9.28989 90.1926C9.28989 90.79 9.19248 91.2983 8.99767 91.7176C8.80285 92.1368 8.53431 92.4565 8.19206 92.6766C7.84981 92.8967 7.46543 93.0068 7.03894 93.0068ZM7.03894 92.3072C7.32853 92.3072 7.58127 92.2286 7.79715 92.0713C8.0183 91.9141 8.18943 91.6783 8.31053 91.3639C8.4369 91.0494 8.50008 90.659 8.50008 90.1926C8.50008 89.7262 8.4369 89.3357 8.31053 89.0213C8.18943 88.7068 8.0183 88.471 7.79715 88.3138C7.58127 88.1566 7.32853 88.078 7.03894 88.078C6.74934 88.078 6.49397 88.1566 6.27282 88.3138C6.05167 88.471 5.87791 88.7068 5.75154 89.0213C5.63044 89.3357 5.56989 89.7262 5.56989 90.1926C5.56989 90.659 5.63044 91.0494 5.75154 91.3639C5.87791 91.6783 6.05167 91.9141 6.27282 92.0713C6.49397 92.2286 6.74934 92.3072 7.03894 92.3072Z" fill="#DF2429"/>
<path d="M14.3332 92.9911C13.9067 92.9911 13.525 92.8994 13.188 92.7159C12.8563 92.5325 12.5956 92.281 12.4061 91.9613C12.2165 91.6416 12.1217 91.2748 12.1217 90.8608C12.1217 90.4467 12.2165 90.0799 12.4061 89.7602C12.5956 89.4405 12.8563 89.1916 13.188 89.0134C13.525 88.83 13.9067 88.7383 14.3332 88.7383C14.7123 88.7383 15.0493 88.8143 15.3442 88.9663C15.6443 89.113 15.876 89.3331 16.0392 89.6266L15.4626 89.9961C15.3257 89.7917 15.1572 89.6423 14.9572 89.548C14.7623 89.4484 14.5517 89.3986 14.3253 89.3986C14.0515 89.3986 13.8067 89.4589 13.5908 89.5794C13.3749 89.7 13.2038 89.8703 13.0774 90.0904C12.951 90.3052 12.8878 90.562 12.8878 90.8608C12.8878 91.1595 12.951 91.4189 13.0774 91.639C13.2038 91.8591 13.3749 92.0294 13.5908 92.1499C13.8067 92.2705 14.0515 92.3308 14.3253 92.3308C14.5517 92.3308 14.7623 92.2836 14.9572 92.1893C15.1572 92.0897 15.3257 91.9377 15.4626 91.7333L16.0392 92.0949C15.876 92.3832 15.6443 92.6059 15.3442 92.7631C15.0493 92.9151 14.7123 92.9911 14.3332 92.9911Z" fill="#DF2429"/>
<path d="M22.2573 88.7383C22.5943 88.7383 22.8918 88.8038 23.1498 88.9348C23.4078 89.0658 23.6079 89.265 23.75 89.5323C23.8975 89.7995 23.9712 90.1376 23.9712 90.5463V92.9439H23.2129V90.6328C23.2129 90.2293 23.1182 89.9253 22.9286 89.7209C22.7391 89.5165 22.4732 89.4143 22.1309 89.4143C21.8782 89.4143 21.657 89.4667 21.4675 89.5716C21.2779 89.6764 21.1305 89.831 21.0252 90.0353C20.9251 90.2397 20.8751 90.4939 20.8751 90.7979V92.9439H20.1169V90.6328C20.1169 90.2293 20.0221 89.9253 19.8326 89.7209C19.6483 89.5165 19.3824 89.4143 19.0349 89.4143C18.7874 89.4143 18.5689 89.4667 18.3793 89.5716C18.1898 89.6764 18.0423 89.831 17.937 90.0353C17.8317 90.2397 17.7791 90.4939 17.7791 90.7979V92.9439H17.0208V88.7776H17.7475V89.886L17.629 89.603C17.7606 89.3305 17.9633 89.1182 18.2371 88.9663C18.5109 88.8143 18.8295 88.7383 19.1928 88.7383C19.593 88.7383 19.9379 88.8379 20.2275 89.037C20.5171 89.2309 20.7066 89.527 20.7961 89.9253L20.4881 89.7995C20.6145 89.4798 20.8356 89.2231 21.1515 89.0292C21.4675 88.8353 21.836 88.7383 22.2573 88.7383Z" fill="#DF2429"/>
<path d="M14.2881 22.3882C15.1112 22.4867 15.7292 22.7137 16.4652 23.0892C16.57 23.1421 16.6748 23.195 16.7828 23.2495C17.0074 23.363 17.2316 23.4772 17.4556 23.5919C18.0546 23.8985 18.6561 24.2004 19.2572 24.503C19.4373 24.594 19.4373 24.594 19.6211 24.6868C20.5898 25.1752 21.5657 25.6468 22.5474 26.1088C24.4399 27.0022 26.3224 27.9156 28.2043 28.8307C28.8365 29.138 29.4688 29.4453 30.101 29.7526C30.2568 29.8283 30.4125 29.904 30.573 29.982C32.0171 30.6836 33.4627 31.3821 34.9089 32.0794C35.0258 32.1358 35.1428 32.1922 35.2633 32.2503C35.7352 32.4778 36.2071 32.7054 36.679 32.9329C38.0596 33.5986 39.4395 34.2658 40.8194 34.933C41.0779 35.058 41.3364 35.1829 41.5949 35.3079C42.5029 35.7469 43.4108 36.186 44.3187 36.625C44.9674 36.9387 45.6161 37.2524 46.2649 37.566C46.7769 37.8136 47.2889 38.0612 47.8009 38.3089C48.9837 38.881 50.1669 39.4523 51.3512 40.0214C51.8937 40.2821 52.4361 40.543 52.9785 40.804C53.2363 40.9279 53.4941 41.0516 53.752 41.1752C54.1076 41.3457 54.463 41.5166 54.8184 41.6876C55.1212 41.8329 55.1212 41.8329 55.4301 41.9811C55.9266 42.2315 55.9266 42.2315 56.4559 42.5828C56.5217 42.9304 56.5217 42.9304 56.5211 43.3664C56.5221 43.5323 56.5232 43.6982 56.5243 43.869C56.5227 44.0525 56.5212 44.236 56.5196 44.425C56.52 44.6189 56.5205 44.8128 56.521 45.0126C56.5218 45.6668 56.5189 46.3209 56.516 46.975C56.5159 47.4422 56.5159 47.9094 56.5163 48.3765C56.5165 49.3846 56.5149 50.3926 56.5119 51.4006C56.5076 52.8581 56.5062 54.3155 56.5056 55.773C56.5044 58.1375 56.5009 60.5019 56.4959 62.8664C56.491 65.1637 56.4873 67.4609 56.485 69.7582C56.4848 69.9705 56.4848 69.9705 56.4846 70.1871C56.4839 70.8971 56.4832 71.6071 56.4826 72.3171C56.4771 78.2101 56.4678 84.1031 56.4559 89.9961C55.5308 89.8805 54.7948 89.6721 53.9665 89.2552C53.8481 89.1974 53.7297 89.1395 53.6077 89.0799C53.2183 88.8893 52.8302 88.6964 52.442 88.5034C52.1663 88.368 51.8905 88.2327 51.6147 88.0977C51.0418 87.817 50.4694 87.5356 49.8972 87.2536C48.7143 86.6714 47.5267 86.0988 46.339 85.5263C45.6972 85.2167 45.0558 84.9064 44.4143 84.5962C44.157 84.4718 43.8997 84.3474 43.6424 84.223C29.7481 77.5062 29.7481 77.5062 29.3623 77.3196C29.1047 77.1951 28.8472 77.0706 28.5897 76.9462C27.9498 76.6368 27.3099 76.3274 26.6702 76.0178C25.4724 75.4381 24.2742 74.8596 23.074 74.2849C22.5116 74.0154 21.9494 73.7454 21.3873 73.4753C21.1211 73.3476 20.8548 73.2202 20.5883 73.0931C15.334 70.5874 15.334 70.5874 14.2881 67.8699C13.9646 66.7847 13.8849 65.8139 13.8904 64.6855C13.8898 64.5111 13.8893 64.3366 13.8887 64.1569C13.8873 63.5748 13.8884 62.9927 13.8895 62.4107C13.8891 61.9923 13.8884 61.574 13.8877 61.1557C13.8862 60.1389 13.8864 59.1221 13.8874 58.1053C13.8882 57.2786 13.8884 56.452 13.888 55.6253C13.8879 55.5075 13.8879 55.3897 13.8878 55.2682C13.8877 55.0288 13.8876 54.7894 13.8875 54.55C13.8865 52.3072 13.8876 50.0644 13.8895 47.8216C13.8911 45.8988 13.8908 43.976 13.8892 42.0533C13.8873 39.8183 13.8866 37.5833 13.8876 35.3482C13.8877 35.1097 13.8879 34.8712 13.888 34.6327C13.888 34.5154 13.8881 34.398 13.8881 34.2772C13.8884 33.4519 13.8879 32.6266 13.8871 31.8013C13.8861 30.6897 13.8868 29.5782 13.8888 28.4666C13.8893 28.0588 13.8892 27.6511 13.8884 27.2434C13.8874 26.6864 13.8886 26.1295 13.8904 25.5725C13.8896 25.4115 13.8888 25.2505 13.888 25.0847C13.8938 24.1279 14.0181 23.3075 14.2881 22.3882Z" fill="black"/>
<path d="M101.094 22.2126C101.269 22.2995 101.269 22.2995 101.447 22.3882C101.794 23.4595 101.851 24.4473 101.847 25.5666C101.848 25.7404 101.848 25.9143 101.849 26.0934C101.851 26.6734 101.851 27.2534 101.851 27.8335C101.852 28.2504 101.853 28.6673 101.854 29.0842C101.857 30.0977 101.858 31.1113 101.859 32.1249C101.859 32.9494 101.859 33.774 101.861 34.5985C101.864 36.94 101.865 39.2815 101.865 41.623C101.865 41.7491 101.865 41.8752 101.865 42.0051C101.865 42.1313 101.865 42.2575 101.865 42.3875C101.865 44.4316 101.868 46.4757 101.873 48.5197C101.878 50.6222 101.881 52.7247 101.88 54.8272C101.88 56.0061 101.881 57.185 101.885 58.3639C101.888 59.4733 101.888 60.5827 101.886 61.6921C101.886 62.0981 101.886 62.5041 101.889 62.91C101.903 65.785 101.88 68.2714 99.7516 70.4421C98.7253 71.3936 97.5762 71.9663 96.3191 72.5673C96.0964 72.6757 95.8737 72.7843 95.6511 72.893C94.9967 73.2118 94.3404 73.5265 93.6836 73.8404C93.5155 73.9209 93.3474 74.0015 93.1741 74.0844C92.5573 74.3794 91.94 74.6732 91.3219 74.9655C89.5889 75.7854 87.8652 76.624 86.1411 77.4623C85.5093 77.7693 84.8775 78.0764 84.2458 78.3835C84.0109 78.4976 84.0109 78.4976 83.7713 78.6141C82.2612 79.348 80.7498 80.0793 79.2381 80.8097C79.1125 80.8704 78.987 80.931 78.8577 80.9935C78.1027 81.3583 77.3477 81.7231 76.5927 82.0878C75.5803 82.5768 74.5679 83.066 73.5555 83.5553C73.1747 83.7393 72.7939 83.9233 72.4131 84.1072C71.1729 84.7063 69.9334 85.3068 68.6954 85.9104C68.0834 86.2087 67.4713 86.5066 66.8592 86.8046C66.5685 86.9462 66.2778 87.0881 65.9873 87.2302C64.4721 87.9712 62.9513 88.6984 61.4133 89.3917C61.2803 89.4527 61.1473 89.5136 61.0103 89.5765C60.3821 89.8559 59.9776 89.9961 59.2789 89.9961C59.2789 74.3497 59.2789 58.7033 59.2789 42.5828C63.1288 40.566 63.1288 40.566 64.4017 39.9562C64.6174 39.852 64.6174 39.852 64.8375 39.7457C65.2817 39.5311 65.7262 39.3173 66.1709 39.1036C66.6202 38.887 67.0694 38.6702 67.5186 38.4534C67.8035 38.316 68.0885 38.1786 68.3735 38.0415C69.246 37.6211 70.1132 37.1921 70.9735 36.7475C71.2764 36.6122 71.2764 36.6122 71.6293 36.6122C71.6303 36.8727 71.6303 36.8727 71.6313 37.1384C71.6378 38.7765 71.648 40.4146 71.6618 42.0526C71.6687 42.8948 71.6744 43.7368 71.6771 44.579C71.6798 45.392 71.6859 46.2049 71.6943 47.0179C71.6969 47.3277 71.6983 47.6376 71.6985 47.9475C71.6989 48.3822 71.7037 48.8167 71.7094 49.2514C71.7085 49.3789 71.7077 49.5065 71.7067 49.638C71.7249 50.5241 71.9558 51.0288 72.5115 51.7142C73.1535 52.1652 73.8664 52.3102 74.6397 52.1861C76.0594 51.7038 76.9725 49.9745 77.8156 48.8167C78.0234 48.5332 78.2313 48.2496 78.4393 47.9661C78.5387 47.8303 78.6381 47.6945 78.7405 47.5546C79.1879 46.947 79.6423 46.3449 80.0982 45.7436C81.4099 45.8539 82.5498 46.3625 83.7557 46.8642C84.7531 47.2506 85.4381 47.3971 86.4813 47.1161C87.1122 46.8349 87.3877 46.3352 87.6849 45.7436C87.7066 45.208 87.7176 44.676 87.7211 44.1401C87.7228 43.9739 87.7246 43.8078 87.7264 43.6365C87.732 43.0854 87.7363 42.5343 87.7407 41.9832C87.7443 41.6018 87.748 41.2204 87.7518 40.839C87.7616 39.8338 87.7703 38.8286 87.7788 37.8234C87.7876 36.7982 87.7974 35.773 87.8072 34.7478C87.8262 32.7352 87.8441 30.7226 87.8613 28.71C88.051 28.6156 88.2407 28.5212 88.4361 28.424C88.6897 28.2978 88.9433 28.1717 89.1969 28.0455C89.3214 27.9836 89.4459 27.9217 89.5741 27.8579C90.3492 27.4722 91.1238 27.0856 91.8979 26.6981C94.3413 25.4764 96.7931 24.2759 99.2665 23.1151C99.6756 22.9183 100.077 22.7096 100.479 22.4993C100.783 22.3574 100.783 22.3574 101.094 22.2126Z" fill="black"/>
<path d="M57.7571 0.0205377C57.887 0.0139731 58.0169 0.0074085 58.1507 0.000644969C60.238 -0.0312075 62.1406 1.12313 63.9511 2.04545C64.5338 2.34216 65.1185 2.63499 65.7029 2.92831C65.8192 2.98677 65.9355 3.04524 66.0553 3.10548C67.0139 3.58667 67.9794 4.05214 68.9497 4.50944C70.8571 5.40975 72.7541 6.33085 74.6507 7.25326C76.7365 8.2674 78.8228 9.27992 80.9142 10.2824C83.1885 11.3728 85.458 12.4729 87.727 13.5743C89.1391 14.2596 90.5515 14.9441 91.9655 15.6254C92.0959 15.6882 92.2262 15.751 92.3606 15.8158C92.9687 16.1088 93.5769 16.4016 94.1852 16.694C94.6202 16.9032 95.0546 17.1135 95.4886 17.3247C95.9645 17.5563 96.4425 17.783 96.9216 18.0081C97.1768 18.1302 97.432 18.2524 97.6872 18.3747C97.8057 18.4294 97.9241 18.4841 98.0462 18.5404C98.7781 18.8948 99.2234 19.261 99.6824 19.9297C98.0571 20.8217 96.4069 21.6481 94.7282 22.4359C93.7451 22.8981 92.7673 23.3683 91.7945 23.8515C91.2339 24.1298 90.6725 24.4064 90.111 24.6831C89.8325 24.8209 89.5544 24.9596 89.2767 25.0992C88.8845 25.2962 88.491 25.4901 88.097 25.6835C87.9794 25.7436 87.8617 25.8037 87.7405 25.8656C87.26 26.0985 86.8914 26.2553 86.3521 26.2321C85.8084 26.0353 85.2973 25.8031 84.7778 25.5491C84.6668 25.4952 84.5557 25.4412 84.4413 25.3857C84.0738 25.2069 83.707 25.0268 83.3402 24.8467C83.079 24.7194 82.8179 24.5922 82.5566 24.4651C82.0101 24.1992 81.4638 23.9327 80.9176 23.6659C79.7654 23.1034 78.6103 22.5465 77.4555 21.9893C73.6882 20.1709 69.9253 18.3434 66.1617 16.5174C65.2863 16.0926 64.4109 15.6679 63.5354 15.2433C63.3918 15.1736 63.2482 15.104 63.1003 15.0323C61.0346 14.0304 58.9676 13.031 56.8994 12.0342C55.4494 11.3353 54.0002 10.6345 52.5523 9.93123C52.4 9.85727 52.2477 9.7833 52.0907 9.7071C51.3509 9.34786 50.6112 8.98842 49.8717 8.6286C49.5982 8.49573 49.3247 8.36288 49.0512 8.23006C48.9195 8.166 48.7878 8.10194 48.6521 8.03594C47.969 7.70482 47.2835 7.37993 46.5935 7.06325C46.4544 6.99922 46.3153 6.93518 46.172 6.86921C45.9065 6.74743 45.6406 6.6266 45.3742 6.50685C44.4778 6.09568 44.4778 6.09568 44.2819 5.70574C55.5163 0.0613584 55.5163 0.0613584 57.7571 0.0205377Z" fill="black"/>
<path d="M29.1906 14.5834C29.373 14.6758 29.5554 14.7681 29.7434 14.8633C29.9378 14.9633 30.1322 15.0634 30.3326 15.1665C30.751 15.3782 31.1696 15.5898 31.5883 15.801C31.7459 15.8807 31.7459 15.8807 31.9067 15.962C32.8234 16.4251 33.7482 16.869 34.6773 17.3066C36.5992 18.2146 38.511 19.1429 40.4224 20.0724C42.5229 21.0937 44.624 22.1135 46.73 23.1235C48.5694 24.0057 50.4071 24.8913 52.2436 25.7796C52.4374 25.8733 52.4374 25.8733 52.6351 25.9689C53.2924 26.2868 53.9496 26.6048 54.6068 26.9227C56.5437 27.8597 58.4809 28.7962 60.4181 29.7324C61.2035 30.112 61.9888 30.4918 62.7739 30.8718C63.2992 31.126 63.8245 31.38 64.3499 31.6339C64.5957 31.7528 64.8414 31.8717 65.0872 31.9908C66.6129 32.7298 68.1449 33.4524 69.6885 34.1537C69.6885 34.2696 69.6885 34.3855 69.6885 34.5049C68.4557 35.108 67.2227 35.7107 65.9895 36.3131C65.5711 36.5175 65.1527 36.722 64.7344 36.9267C63.7399 37.4131 62.7448 37.8984 61.7482 38.3807C61.1108 38.6892 60.4764 39.0021 59.8455 39.3237C59.6109 39.4404 59.3763 39.557 59.1417 39.6736C58.8548 39.8201 58.8549 39.8201 58.5622 39.9696C57.897 40.1681 57.612 40.0519 56.9852 39.7731C56.8285 39.7038 56.6717 39.6346 56.5102 39.5633C56.266 39.4451 56.266 39.4451 56.0169 39.3245C55.8268 39.2328 55.6368 39.1412 55.4409 39.0467C55.2337 38.946 55.0264 38.8452 54.8129 38.7414C54.5896 38.6334 54.3662 38.5254 54.1428 38.4175C53.5201 38.1165 52.8979 37.8145 52.2757 37.5123C51.8555 37.3082 51.4351 37.1042 51.0148 36.9003C49.7965 36.3092 48.5783 35.7178 47.3604 35.126C45.4533 34.1993 43.5452 33.2748 41.6354 32.3538C41.4586 32.2685 41.4586 32.2685 41.2782 32.1815C40.5732 31.8415 39.868 31.5016 39.1629 31.1617C38.0976 30.6483 37.0325 30.1347 35.9675 29.6209C35.849 29.5638 35.7304 29.5066 35.6083 29.4477C33.5875 28.4728 31.5684 27.4943 29.5497 26.5149C25.1162 24.3642 20.682 22.2154 16.2288 20.1053C16.2288 19.5785 16.2288 19.5785 16.4543 19.3375C17.5616 18.5174 18.7647 17.9416 20.0112 17.3615C20.2368 17.2554 20.4624 17.1492 20.688 17.0428C21.034 16.8797 21.38 16.7167 21.7263 16.5543C22.5015 16.1901 23.2698 15.8144 24.0361 15.4319C24.2352 15.3335 24.4343 15.235 24.6395 15.1336C25.016 14.9472 25.3915 14.7588 25.7659 14.5682C25.9354 14.4852 26.1048 14.4021 26.2794 14.3166C26.4261 14.243 26.5728 14.1694 26.7239 14.0937C27.6344 13.8178 28.3797 14.1678 29.1906 14.5834Z" fill="black"/>
<path d="M42.4059 7.8846C42.6102 7.98909 42.8144 8.09359 43.0248 8.20125C43.1372 8.25805 43.2497 8.31486 43.3655 8.37338C43.6057 8.49499 43.8455 8.6174 44.085 8.74052C44.5942 9.00232 45.1055 9.26015 45.6167 9.51818C45.8739 9.648 46.131 9.778 46.3879 9.90819C47.3806 10.4106 48.3806 10.8956 49.3875 11.369C51.2877 12.2653 53.1772 13.183 55.0665 14.1018C57.1448 15.1124 59.2238 16.1213 61.3079 17.1201C63.3697 18.1083 65.4268 19.1058 67.4831 20.1053C69.7429 21.2037 72.0044 22.2982 74.2701 23.3843C77.2175 24.7983 80.1569 26.2286 83.0976 27.6563C83.0976 27.7722 83.0976 27.8881 83.0976 28.0076C80.575 29.2712 78.0517 30.5341 75.5109 31.7611C75.347 31.8414 75.1831 31.9217 75.0143 32.0045C74.8616 32.0777 74.7088 32.1508 74.5515 32.2262C74.3553 32.321 74.3553 32.321 74.1552 32.4178C73.4905 32.6707 72.9288 32.8224 72.2353 32.6108C72.0848 32.5357 71.9344 32.4606 71.7793 32.3831C71.6064 32.2985 71.4335 32.2139 71.2554 32.1267C71.0702 32.0325 70.8849 31.9384 70.6941 31.8414C70.4985 31.7448 70.3029 31.6482 70.1014 31.5487C69.579 31.2902 69.058 31.0294 68.5375 30.7673C68.0249 30.5097 67.5108 30.2549 66.9969 29.9999C66.3846 29.6961 65.7724 29.3921 65.1607 29.0871C63.4345 28.2272 61.6965 27.3937 59.9547 26.5657C58.5842 25.9142 57.2195 25.2509 55.8551 24.5868C55.0815 24.2103 54.3076 23.8343 53.5337 23.4583C53.3781 23.3827 53.2225 23.307 53.0622 23.2291C51.5552 22.4969 50.047 21.7671 48.5384 21.0382C48.4131 20.9777 48.2878 20.9171 48.1586 20.8547C47.5297 20.5508 46.9008 20.247 46.2718 19.9432C45.2487 19.4489 44.2257 18.9543 43.2027 18.4597C42.6904 18.212 42.1781 17.9644 41.6657 17.7168C40.4718 17.1398 39.2779 16.5625 38.0846 15.9841C37.5276 15.7141 36.9704 15.4443 36.4133 15.1745C36.1506 15.0472 35.8878 14.9198 35.6251 14.7923C34.0493 14.0276 32.4683 13.2781 30.8729 12.5543C31.0493 12.0275 31.0493 12.0275 31.3551 11.8322C31.5565 11.7401 31.5565 11.7401 31.762 11.6461C31.9165 11.5741 32.0711 11.502 32.2303 11.4278C32.401 11.3505 32.5717 11.2731 32.7475 11.1934C33.1157 11.0236 33.4837 10.8535 33.8516 10.683C34.0518 10.5905 34.252 10.4979 34.4583 10.4025C35.162 10.0731 35.8561 9.72523 36.5505 9.37698C36.9186 9.19396 37.2868 9.01121 37.6551 8.82854C37.8963 8.70812 38.137 8.58667 38.3772 8.46417C38.7176 8.29084 39.0597 8.12156 39.4024 7.95294C39.5993 7.85396 39.7961 7.75498 39.9989 7.653C40.9076 7.35234 41.5379 7.5234 42.4059 7.8846Z" fill="#DF2429"/>
<path d="M85.0383 30.1148C85.0383 34.8087 85.0383 39.5026 85.0383 44.3388C84.2844 44.2137 83.7811 44.1135 83.1031 43.8387C82.8646 43.7445 82.8646 43.7445 82.6213 43.6484C82.2916 43.5159 81.9622 43.3828 81.633 43.2492C80.4592 42.7544 80.4592 42.7544 79.216 42.7584C78.4524 43.3709 77.8972 44.1814 77.3193 44.9644C77.1821 45.1483 77.1821 45.1483 77.0421 45.3358C76.7662 45.7054 76.4913 46.0756 76.2166 46.4461C75.9816 46.7628 75.7463 47.0793 75.5104 47.3954C75.3126 47.6602 75.1157 47.9257 74.9189 48.1911C74.8231 48.3106 74.7273 48.4302 74.6287 48.5533C74.5705 48.5533 74.5123 48.5533 74.4523 48.5533C74.4523 44.1491 74.4523 39.745 74.4523 35.2074C75.3838 34.7438 76.3154 34.2802 77.2752 33.8025C77.633 33.6235 77.9907 33.4444 78.3593 33.2599C80.0456 32.4161 81.7343 31.5789 83.4394 30.7733C83.5814 30.7061 83.7234 30.6389 83.8697 30.5696C84.8394 30.1148 84.8394 30.1148 85.0383 30.1148Z" fill="#DF2429"/>
<path d="M23.5435 71.2432L24.017 67.6508L24.6169 67.9396L24.1764 71.1821L23.8786 71.0388L26.1945 68.6989L26.7278 68.9556L26.2961 72.2025L26.0073 72.0634L28.3098 69.7171L28.8608 69.9824L26.3254 72.5822L25.7122 72.287L26.0906 69.3529L26.2505 69.4299L24.1613 71.5405L23.5435 71.2432Z" fill="white"/>
<path d="M27.7954 73.2898L28.9431 70.9279L29.4986 71.1953L28.3509 73.5572L27.7954 73.2898ZM29.4122 70.6734C29.3085 70.6235 29.2383 70.5497 29.2017 70.4521C29.1681 70.3558 29.1734 70.262 29.2178 70.1706C29.2637 70.0762 29.3343 70.0138 29.4295 69.9832C29.5292 69.9512 29.6309 69.9601 29.7345 70.01C29.8382 70.0599 29.9076 70.1315 29.9427 70.2248C29.9822 70.3166 29.9797 70.4082 29.9353 70.4996C29.888 70.5969 29.8153 70.6637 29.7172 70.7002C29.6205 70.7337 29.5188 70.7248 29.4122 70.6734Z" fill="white"/>
<path d="M30.0693 74.4225C29.8412 74.3127 29.6596 74.1635 29.5246 73.9748C29.3941 73.7846 29.3206 73.5746 29.3044 73.3448C29.2881 73.1151 29.3394 72.8778 29.4583 72.633C29.5772 72.3883 29.7322 72.201 29.9233 72.071C30.1144 71.941 30.3247 71.8694 30.5541 71.8562C30.7865 71.8443 31.0167 71.8933 31.2449 72.0031C31.4434 72.0987 31.5996 72.2284 31.7137 72.3925C31.8291 72.5536 31.8898 72.7447 31.8957 72.9658C31.9016 73.187 31.8371 73.4361 31.7025 73.7133C31.5692 73.9875 31.4145 74.1932 31.2382 74.3302C31.0633 74.4644 30.8759 74.5379 30.6759 74.5508C30.4759 74.5637 30.2737 74.5209 30.0693 74.4225ZM30.3659 73.9813C30.4992 74.0455 30.632 74.0731 30.7644 74.064C30.8997 74.0564 31.0257 74.0115 31.1423 73.9294C31.262 73.8487 31.3583 73.7332 31.4314 73.5828C31.5059 73.4295 31.5371 73.2826 31.5249 73.1421C31.5171 73.0001 31.4742 72.8739 31.3962 72.7636C31.3212 72.6547 31.217 72.5682 31.0837 72.504C30.9504 72.4399 30.8161 72.4116 30.6808 72.4192C30.5484 72.4283 30.4224 72.4732 30.3028 72.5538C30.1876 72.633 30.0927 72.7492 30.0182 72.9026C29.9452 73.0529 29.9125 73.1991 29.9203 73.3411C29.931 73.4846 29.9739 73.6107 30.0489 73.7196C30.1269 73.8299 30.2326 73.9172 30.3659 73.9813ZM30.8709 74.7701L31.1417 74.2129L31.4691 73.5955L31.7298 72.946L32.4433 71.4776L32.9944 71.7428L31.3997 75.0247L30.8709 74.7701Z" fill="white"/>
<path d="M33.1262 75.8939C32.8655 75.7684 32.6963 75.6051 32.6185 75.404C32.5422 75.1999 32.5679 74.9666 32.6954 74.7042L33.7248 72.5856L34.2803 72.853L33.2573 74.9583C33.2029 75.0704 33.1887 75.1709 33.2149 75.2599C33.2441 75.3504 33.3105 75.4205 33.4142 75.4704C33.5387 75.5303 33.6581 75.5478 33.7726 75.5229L33.7368 75.9914C33.6459 76.0131 33.5465 76.0144 33.4388 75.9953C33.3311 75.9762 33.2269 75.9424 33.1262 75.8939ZM32.8566 73.3792L33.0716 72.937L34.6536 73.6984L34.4387 74.1408L32.8566 73.3792Z" fill="white"/>
<path d="M36.6385 74.5993C36.8281 74.6906 36.9791 74.8087 37.0914 74.9537C37.2067 75.1002 37.27 75.2708 37.2814 75.4654C37.2943 75.6572 37.2427 75.8725 37.1266 76.1113L36.469 77.4647L35.9135 77.1974L36.5367 75.9147C36.6385 75.7053 36.664 75.5248 36.6135 75.3731C36.5658 75.2229 36.4531 75.1049 36.2754 75.0194C36.145 74.9566 36.0166 74.9276 35.8901 74.9322C35.7636 74.9368 35.6464 74.9786 35.5385 75.0576C35.435 75.1352 35.3446 75.2535 35.2672 75.4128L34.687 76.607L34.1315 76.3396L35.7261 73.0577L36.2816 73.3251L35.5251 74.882L35.4997 74.6296C35.6557 74.5192 35.8316 74.4619 36.0273 74.4579C36.2274 74.4524 36.4311 74.4995 36.6385 74.5993Z" fill="white"/>
<path d="M77.1269 78.5611L75.6187 75.4668L76.1961 75.188L77.4672 77.7961L79.0928 77.0112L79.3298 77.4975L77.1269 78.5611Z" fill="white"/>
<path d="M80.8404 76.8063C80.5769 76.9335 80.3208 76.9935 80.0722 76.9861C79.8251 76.9744 79.6022 76.9036 79.4036 76.7738C79.208 76.6425 79.0534 76.4605 78.9399 76.2277C78.825 75.9919 78.7756 75.7592 78.7916 75.5294C78.8091 75.2952 78.8845 75.0822 79.0178 74.8904C79.1541 74.6972 79.3407 74.5434 79.5775 74.4291C79.8085 74.3176 80.0387 74.2683 80.2681 74.2813C80.4976 74.2943 80.7086 74.3671 80.9013 74.4998C81.094 74.6325 81.2507 74.8226 81.3713 75.0701C81.3828 75.0937 81.3943 75.1209 81.4057 75.1518C81.42 75.1813 81.4322 75.21 81.4422 75.238L79.4658 76.1922L79.287 75.8253L80.9702 75.0126L80.8086 75.2326C80.7455 75.0956 80.6592 74.9898 80.5497 74.9153C80.4402 74.8407 80.3193 74.799 80.1869 74.7901C80.0575 74.7798 79.9262 74.8068 79.793 74.8711C79.6568 74.9369 79.5512 75.0242 79.4763 75.1332C79.4044 75.2408 79.3647 75.3619 79.3572 75.4966C79.3512 75.6269 79.3827 75.7627 79.4516 75.9042L79.4947 75.9926C79.5636 76.134 79.6572 76.2436 79.7755 76.3212C79.8938 76.3987 80.0265 76.4384 80.1737 76.4402C80.3209 76.4419 80.4714 76.4056 80.6254 76.3313C80.7586 76.267 80.8685 76.1884 80.955 76.0957C81.0415 76.003 81.1046 75.8924 81.1444 75.764L81.6079 75.9607C81.5616 76.1359 81.4736 76.2967 81.3438 76.4431C81.2155 76.5852 81.0477 76.7062 80.8404 76.8063Z" fill="white"/>
<path d="M82.6557 72.9428C82.8452 72.8514 83.0319 72.8067 83.2158 72.8089C83.4028 72.8097 83.5765 72.8659 83.737 72.9777C83.8962 73.0866 84.0339 73.2603 84.1502 73.499L84.8095 74.8517L84.2544 75.1197L83.6296 73.8378C83.5276 73.6286 83.4011 73.4967 83.2502 73.4421C83.1022 73.3862 82.9394 73.4011 82.7617 73.4869C82.6314 73.5498 82.5289 73.632 82.4541 73.7337C82.3793 73.8353 82.3396 73.9528 82.335 74.086C82.332 74.2149 82.3693 74.3589 82.4468 74.5181L83.0286 75.7116L82.4734 75.9796L81.3229 73.6191L81.8514 73.3639L82.1617 74.0005L81.9736 73.851C81.9832 73.6607 82.0471 73.4879 82.1653 73.3325C82.2849 73.1728 82.4484 73.0429 82.6557 72.9428Z" fill="white"/>
<path d="M87.026 74.8791C86.8069 74.9849 86.5779 75.0591 86.3389 75.1016C86.1043 75.1457 85.8939 75.1454 85.7075 75.1007L85.7537 74.5651C85.899 74.6005 86.0623 74.6054 86.2436 74.5797C86.4294 74.5556 86.6037 74.5042 86.7665 74.4256C87.0271 74.2997 87.1886 74.1471 87.2511 73.9677C87.315 73.7912 87.2888 73.5836 87.1725 73.3449L86.9678 72.925L86.7515 72.3686L86.4731 71.8423L86.193 71.2677L86.7215 71.0125L87.6975 73.015C87.9058 73.4423 87.9492 73.809 87.8278 74.1152C87.7078 74.4243 87.4405 74.679 87.026 74.8791ZM86.4702 73.9188C86.2451 74.0275 86.0178 74.079 85.7883 74.0733C85.5603 74.0632 85.3513 73.9985 85.1614 73.879C84.9745 73.7582 84.825 73.5828 84.713 73.3529C84.6024 73.126 84.5572 72.9021 84.5776 72.6811C84.6008 72.4587 84.6798 72.2568 84.8145 72.0753C84.9521 71.8923 85.1334 71.7465 85.3584 71.6379C85.5598 71.5407 85.7598 71.4932 85.9584 71.4956C86.1571 71.498 86.3447 71.5603 86.5214 71.6825C86.7009 71.8033 86.8546 71.9949 86.9825 72.2571C87.1103 72.5194 87.167 72.7596 87.1526 72.9777C87.1398 73.1914 87.0735 73.3781 86.9538 73.5378C86.8327 73.6946 86.6715 73.8216 86.4702 73.9188ZM86.3262 73.4095C86.4653 73.3423 86.576 73.2543 86.6583 73.1454C86.7391 73.0336 86.7847 72.9132 86.7951 72.7845C86.807 72.6513 86.7806 72.5184 86.716 72.3858C86.6514 72.2532 86.5635 72.1518 86.4525 72.0816C86.343 72.0071 86.2206 71.9697 86.0852 71.9696C85.9483 71.9665 85.8103 71.9985 85.6712 72.0657C85.532 72.1329 85.4198 72.2216 85.3346 72.332C85.2509 72.4379 85.2031 72.5575 85.1912 72.6906C85.1808 72.8194 85.2079 72.9501 85.2726 73.0827C85.3372 73.2153 85.4243 73.3189 85.5338 73.3935C85.6448 73.4636 85.7694 73.5017 85.9077 73.5078C86.0475 73.5095 86.187 73.4767 86.3262 73.4095Z" fill="white"/>
<path d="M89.5097 72.6205C89.2491 72.7463 89.0155 72.7772 88.8087 72.7132C88.6005 72.6463 88.4325 72.4817 88.3046 72.2194L87.2726 70.102L87.8278 69.834L88.8534 71.9381C88.9079 72.0501 88.9784 72.1235 89.0648 72.1582C89.1542 72.1915 89.2507 72.1831 89.3544 72.1331C89.4787 72.073 89.5666 71.9906 89.6179 71.8857L89.9651 72.2041C89.9258 72.2886 89.8652 72.3669 89.7834 72.4392C89.7016 72.5115 89.6103 72.5719 89.5097 72.6205ZM87.3601 71.2721L87.1447 70.83L88.7258 70.0666L88.9412 70.5087L87.3601 71.2721Z" fill="white"/>
<path d="M90.6665 69.075C90.856 68.9835 91.0427 68.9388 91.2267 68.941C91.4136 68.9418 91.5873 68.9981 91.7479 69.1098C91.907 69.2187 92.0447 69.3925 92.1611 69.6312L92.8204 70.9838L92.2652 71.2519L91.6404 69.9699C91.5384 69.7607 91.4119 69.6288 91.261 69.5743C91.113 69.5183 90.9502 69.5332 90.7726 69.619C90.6423 69.6819 90.5397 69.7642 90.4649 69.8658C90.3901 69.9675 90.3504 70.0849 90.3459 70.2182C90.3428 70.3471 90.3801 70.4911 90.4577 70.6502L91.0394 71.8437L90.4842 72.1118L88.8856 68.8318L89.4407 68.5638L90.1991 70.1197L89.9844 69.9831C89.9941 69.7928 90.058 69.62 90.1761 69.4647C90.2958 69.3049 90.4592 69.175 90.6665 69.075Z" fill="white"/>
<path d="M95.6302 54.7618V54.1231H99.0856V54.7618H95.6302ZM99.0856 56.5403V57.179H95.6302V56.5403H99.0856ZM97.6047 54.7126V56.5943H97.0568V54.7126H97.6047Z" fill="white"/>
<path d="M99.1202 52.0273C99.1202 52.3188 99.0626 52.5743 98.9474 52.7937C98.8289 53.0099 98.6677 53.1786 98.4637 53.2998C98.2596 53.4177 98.0276 53.4766 97.7676 53.4766C97.5044 53.4766 97.2723 53.4193 97.0716 53.3047C96.8676 53.1868 96.708 53.0263 96.5928 52.8232C96.4776 52.6169 96.42 52.3827 96.42 52.1206C96.42 51.8651 96.476 51.6375 96.5879 51.4377C96.6997 51.2379 96.8577 51.0807 97.0617 50.9661C97.2658 50.8514 97.506 50.7941 97.7824 50.7941C97.8088 50.7941 97.8384 50.7957 97.8713 50.799C97.9042 50.799 97.9355 50.8006 97.9651 50.8039V52.9902H97.5554V51.1282L97.6837 51.3689C97.5323 51.3657 97.3991 51.3968 97.2839 51.4623C97.1687 51.5278 97.0782 51.6179 97.0124 51.7325C96.9466 51.8439 96.9137 51.9732 96.9137 52.1206C96.9137 52.2713 96.9466 52.4039 97.0124 52.5186C97.0782 52.63 97.1703 52.7184 97.2888 52.7839C97.404 52.8461 97.5406 52.8772 97.6985 52.8772H97.7972C97.9552 52.8772 98.0951 52.8412 98.2168 52.7692C98.3386 52.6971 98.4324 52.5956 98.4982 52.4645C98.564 52.3335 98.5969 52.1829 98.5969 52.0125C98.5969 51.8651 98.5739 51.7325 98.5278 51.6146C98.4817 51.4967 98.4094 51.3919 98.3106 51.3001L98.6907 50.971C98.8289 51.0889 98.9359 51.2379 99.0116 51.4181C99.084 51.5949 99.1202 51.798 99.1202 52.0273Z" fill="white"/>
<path d="M99.0856 50.2042H96.4496V49.59H99.0856V50.2042ZM96.0152 49.8947C96.0152 50.0093 95.979 50.1043 95.9066 50.1796C95.8342 50.2517 95.747 50.2877 95.645 50.2877C95.5397 50.2877 95.4525 50.2517 95.3834 50.1796C95.311 50.1043 95.2748 50.0093 95.2748 49.8947C95.2748 49.78 95.3093 49.6867 95.3785 49.6146C95.4443 49.5393 95.5282 49.5016 95.6302 49.5016C95.7388 49.5016 95.8309 49.5376 95.9066 49.6097C95.979 49.6818 96.0152 49.7767 96.0152 49.8947Z" fill="white"/>
<path d="M100.078 47.595C100.078 47.8374 100.045 48.0749 99.9791 48.3074C99.9166 48.5367 99.8244 48.725 99.7027 48.8724L99.2386 48.5973C99.3341 48.4826 99.4098 48.3385 99.4657 48.1649C99.525 47.9881 99.5546 47.8096 99.5546 47.6294C99.5546 47.3412 99.4871 47.1299 99.3522 46.9956C99.2206 46.8613 99.0215 46.7942 98.7549 46.7942H98.2859L97.6886 46.745L97.0914 46.7647H96.4496V46.18H98.6858C99.163 46.18 99.5134 46.3012 99.7372 46.5436C99.9643 46.786 100.078 47.1365 100.078 47.595ZM98.9672 47.6736C98.9672 47.9226 98.9145 48.1486 98.8092 48.3516C98.7006 48.5514 98.5509 48.7103 98.36 48.8282C98.1691 48.9428 97.9453 49.0002 97.6886 49.0002C97.4352 49.0002 97.2131 48.9428 97.0222 48.8282C96.8314 48.7103 96.6833 48.5514 96.578 48.3516C96.4727 48.1486 96.42 47.9226 96.42 47.6736C96.42 47.4509 96.4644 47.2511 96.5533 47.0742C96.6421 46.8974 96.7804 46.7565 96.9679 46.6517C97.1555 46.5436 97.3958 46.4896 97.6886 46.4896C97.9815 46.4896 98.2234 46.5436 98.4143 46.6517C98.6019 46.7565 98.7417 46.8974 98.8339 47.0742C98.9227 47.2511 98.9672 47.4509 98.9672 47.6736ZM98.4439 47.5803C98.4439 47.4263 98.4126 47.2888 98.3501 47.1676C98.2843 47.0464 98.1954 46.953 98.0835 46.8875C97.9684 46.8187 97.8367 46.7844 97.6886 46.7844C97.5406 46.7844 97.4106 46.8187 97.2987 46.8875C97.1835 46.953 97.0963 47.0464 97.0371 47.1676C96.9745 47.2888 96.9433 47.4263 96.9433 47.5803C96.9433 47.7342 96.9745 47.8734 97.0371 47.9979C97.0963 48.1191 97.1835 48.2141 97.2987 48.2828C97.4106 48.3484 97.5406 48.3811 97.6886 48.3811C97.8367 48.3811 97.9684 48.3484 98.0835 48.2828C98.1954 48.2141 98.2843 48.1191 98.3501 47.9979C98.4126 47.8734 98.4439 47.7342 98.4439 47.5803Z" fill="white"/>
<path d="M96.42 43.884C96.42 43.6744 96.4612 43.4877 96.5434 43.3239C96.6257 43.1568 96.7524 43.0258 96.9235 42.9308C97.0913 42.8358 97.3085 42.7884 97.5751 42.7884H99.0856V43.4025H97.6541C97.4204 43.4025 97.246 43.4582 97.1308 43.5695C97.0157 43.6776 96.9581 43.8299 96.9581 44.0265C96.9581 44.1706 96.9877 44.2983 97.0469 44.4097C97.1062 44.521 97.195 44.6078 97.3135 44.6701C97.4287 44.729 97.5751 44.7585 97.7528 44.7585H99.0856V45.3726H95.4229V44.7585H97.1605L96.9433 44.8912C96.7754 44.7994 96.6471 44.6668 96.5582 44.4932C96.4661 44.3163 96.42 44.1133 96.42 43.884Z" fill="white"/>
<path d="M99.1202 41.0218C99.1202 41.31 99.0461 41.5327 98.898 41.6899C98.7467 41.8472 98.5245 41.9258 98.2316 41.9258H95.8671V41.3116H98.2168C98.3419 41.3116 98.439 41.2805 98.5081 41.2183C98.5772 41.1528 98.6117 41.0627 98.6117 40.9481C98.6117 40.8105 98.5755 40.6959 98.5031 40.6041L98.9425 40.4322C99.0017 40.5042 99.0461 40.5927 99.0757 40.6975C99.1054 40.8023 99.1202 40.9104 99.1202 41.0218ZM96.963 42.3581H96.4694V40.6091H96.963V42.3581Z" fill="white"/>
<path d="M108.983 78.0129C109.102 78.2573 108.999 78.551 108.753 78.6689C108.508 78.7868 108.213 78.6842 108.094 78.4398L107.022 76.2272L63.8945 96.9316L64.9668 99.1442C65.0852 99.3886 64.9821 99.6822 64.7366 99.8001C64.491 99.918 64.196 99.8155 64.0775 99.5711L61.2896 93.8183C61.1712 93.5739 61.2742 93.2802 61.5197 93.1623C61.7653 93.0444 62.0604 93.147 62.1788 93.3914L63.2511 95.604L106.379 74.8996L105.306 72.687C105.188 72.4426 105.291 72.1489 105.536 72.031C105.782 71.9132 106.077 72.0157 106.195 72.2601L108.983 78.0129Z" fill="#DF2429"/>
<path d="M9.30811 72.2592C9.42745 72.0153 9.7229 71.9138 9.96802 72.0326C10.2131 72.1514 10.3151 72.4454 10.1958 72.6894L9.11534 74.8981L52.1663 95.7596L53.2467 93.5509C53.366 93.307 53.6615 93.2055 53.9066 93.3243C54.1517 93.4431 54.2537 93.7371 54.1343 93.9811L51.3252 99.7236C51.2059 99.9676 50.9104 100.069 50.6653 99.9503C50.4202 99.8315 50.3182 99.5375 50.4376 99.2935L51.518 97.0848L8.46709 76.2233L7.38667 78.432C7.26733 78.6759 6.97188 78.7774 6.72676 78.6586C6.48165 78.5398 6.37968 78.2458 6.49902 78.0018L9.30811 72.2592Z" fill="#DF2429"/>
<path d="M112.907 22.6866C113.18 22.6866 113.401 22.9066 113.401 23.1779C113.401 23.4493 113.18 23.6693 112.907 23.6693H110.439V66.5106H112.907C113.18 66.5106 113.401 66.7306 113.401 67.0019C113.401 67.2732 113.18 67.4932 112.907 67.4932H106.49C106.217 67.4932 105.996 67.2732 105.996 67.0019C105.996 66.7306 106.217 66.5106 106.49 66.5106H108.958V23.6693H106.49C106.217 23.6693 105.996 23.4493 105.996 23.1779C105.997 22.9066 106.218 22.6866 106.49 22.6866H112.907Z" fill="#DF2429"/>
<line x1="158.5" y1="5.5" x2="158.5" y2="94.5" stroke="#7F7F7F" stroke-linecap="round"/>
<path d="M215.177 15.5239C215.322 15.5703 215.467 15.6168 215.617 15.6646C218.938 16.8414 221.525 19.1478 223.09 22.2974C224.51 25.2819 224.778 28.7354 223.751 31.887C223.545 32.4436 223.316 32.9836 223.07 33.5234C222.979 33.7504 222.888 33.9776 222.798 34.2051C222.979 34.2038 222.979 34.2038 223.164 34.2024C224.309 34.1942 225.454 34.1879 226.599 34.184C227.188 34.1818 227.776 34.179 228.365 34.1743C228.934 34.1698 229.503 34.1674 230.072 34.1663C230.288 34.1656 230.504 34.1641 230.72 34.1619C233.177 34.1376 235.101 34.6117 236.922 36.3496C238.448 37.9166 238.827 39.8182 239.163 41.9067C239.203 42.1448 239.243 42.3827 239.283 42.6207C239.369 43.1349 239.455 43.6492 239.539 44.1637C239.676 44.9939 239.815 45.8236 239.955 46.6532C240.242 48.3516 240.526 50.0505 240.81 51.7495C240.951 52.5995 241.093 53.4495 241.235 54.2994C241.473 55.72 241.71 57.1407 241.947 58.5613C242.19 60.0189 242.434 61.4764 242.677 62.9339C242.973 64.7049 243.269 66.4759 243.565 68.247C243.677 68.9194 243.789 69.5919 243.902 70.2644C244.033 71.0527 244.165 71.841 244.296 72.6294C244.345 72.9181 244.393 73.2069 244.441 73.4956C244.507 73.8897 244.573 74.2838 244.638 74.6779C244.657 74.7918 244.676 74.9057 244.696 75.0231C245.11 77.5111 245.215 79.7544 243.756 81.9309C242.582 83.4673 241.063 84.6088 239.129 84.9308C238.815 84.9434 238.501 84.9486 238.187 84.9491C238.094 84.9494 238 84.9497 237.904 84.95C237.59 84.9509 237.275 84.9509 236.961 84.9508C236.734 84.9513 236.507 84.9518 236.28 84.9523C235.655 84.9537 235.03 84.9542 234.405 84.9546C233.731 84.9551 233.057 84.9564 232.383 84.9576C230.755 84.9603 229.127 84.9617 227.5 84.9629C226.733 84.9635 225.966 84.9642 225.2 84.9649C222.651 84.9673 220.102 84.9692 217.553 84.9702C216.891 84.9705 216.23 84.9707 215.568 84.971C215.322 84.9711 215.322 84.9711 215.07 84.9712C212.408 84.9723 209.745 84.9758 207.083 84.9802C204.348 84.9847 201.614 84.9872 198.88 84.9876C197.345 84.9879 195.81 84.9891 194.275 84.9926C192.968 84.9956 191.661 84.9967 190.354 84.9953C189.687 84.9947 189.02 84.995 188.354 84.9976C187.742 85 187.131 84.9999 186.52 84.9978C186.3 84.9974 186.08 84.998 185.859 84.9996C183.588 85.0153 181.717 84.5014 180.024 82.9109C178.556 81.3475 177.972 79.4175 178.001 77.311C178.029 76.407 178.184 75.5222 178.338 74.6326C178.372 74.4288 178.406 74.2249 178.439 74.0209C178.531 73.4698 178.624 72.9191 178.718 72.3684C178.818 71.7796 178.916 71.1906 179.015 70.6015C179.204 69.4674 179.396 68.3336 179.587 67.1998C179.808 65.8972 180.027 64.5943 180.245 63.2914C180.592 61.2205 180.941 59.1497 181.29 57.0792C181.698 54.6598 182.103 52.2399 182.504 49.8194C182.665 48.8532 182.826 47.8871 182.986 46.921C183.107 46.1974 183.227 45.4738 183.347 44.7501C183.456 44.0894 183.566 43.4288 183.677 42.7683C183.716 42.5343 183.755 42.3002 183.793 42.0661C184.23 39.4121 184.857 37.1458 187.082 35.4388C188.367 34.6256 189.747 34.187 191.262 34.1897C191.359 34.1896 191.456 34.1896 191.556 34.1896C191.875 34.1897 192.194 34.1908 192.513 34.1918C192.734 34.1921 192.956 34.1923 193.178 34.1924C193.76 34.1929 194.343 34.1943 194.925 34.1958C195.52 34.1972 196.114 34.1978 196.709 34.1985C197.875 34.1999 199.041 34.2023 200.207 34.2051C200.142 34.0506 200.078 33.896 200.011 33.7367C199.924 33.5294 199.838 33.3221 199.752 33.1148C199.709 33.0135 199.666 32.9121 199.623 32.8077C198.313 29.6516 198.295 26.0938 199.594 22.9225C201.086 19.6921 203.543 17.1209 206.893 15.8208C209.46 14.9122 212.556 14.6792 215.177 15.5239ZM207.514 24.4043C206.555 25.5608 206.103 26.946 206.226 28.4392C206.421 29.7946 207.005 31.0982 208.096 31.9627C209.498 32.9551 210.882 33.3567 212.591 33.1143C214.101 32.7076 215.212 31.9029 216.065 30.6023C216.769 29.3685 216.936 28.0558 216.645 26.6734C216.212 25.1455 215.299 23.9696 213.919 23.1947C211.657 22.1627 209.245 22.614 207.514 24.4043Z" fill="black"/>
<path d="M194.879 64.7583V55.8712L195.849 56.8432H192.939V55.0381H197.124V64.7583H194.879Z" fill="white"/>
<path d="M202.967 64.9249C202.172 64.9249 201.461 64.7305 200.833 64.3417C200.205 63.9436 199.71 63.3697 199.35 62.6198C198.99 61.87 198.809 60.9628 198.809 59.8982C198.809 58.8336 198.99 57.9264 199.35 57.1765C199.71 56.4267 200.205 55.8573 200.833 55.4685C201.461 55.0705 202.172 54.8714 202.967 54.8714C203.771 54.8714 204.482 55.0705 205.101 55.4685C205.729 55.8573 206.224 56.4267 206.584 57.1765C206.944 57.9264 207.125 58.8336 207.125 59.8982C207.125 60.9628 206.944 61.87 206.584 62.6198C206.224 63.3697 205.729 63.9436 205.101 64.3417C204.482 64.7305 203.771 64.9249 202.967 64.9249ZM202.967 63.0225C203.346 63.0225 203.674 62.9161 203.951 62.7032C204.237 62.4902 204.459 62.1523 204.616 61.6895C204.782 61.2266 204.866 60.6295 204.866 59.8982C204.866 59.1668 204.782 58.5697 204.616 58.1069C204.459 57.644 204.237 57.3061 203.951 57.0932C203.674 56.8803 203.346 56.7738 202.967 56.7738C202.597 56.7738 202.269 56.8803 201.983 57.0932C201.706 57.3061 201.484 57.644 201.318 58.1069C201.161 58.5697 201.082 59.1668 201.082 59.8982C201.082 60.6295 201.161 61.2266 201.318 61.6895C201.484 62.1523 201.706 62.4902 201.983 62.7032C202.269 62.9161 202.597 63.0225 202.967 63.0225Z" fill="white"/>
<path d="M214.385 63.2308L214.441 60.5925L217.919 57.2876H220.497L217.157 60.6897L216.034 61.6062L214.385 63.2308ZM212.598 64.7583V54.4549H214.759V64.7583H212.598ZM218.155 64.7583L215.633 61.62L216.991 59.9398L220.774 64.7583H218.155Z" fill="white"/>
<path d="M224.941 67.5633C224.239 67.5633 223.56 67.4753 222.904 67.2994C222.257 67.1328 221.717 66.8782 221.283 66.5357L222.142 64.9805C222.456 65.2397 222.853 65.4433 223.334 65.5915C223.823 65.7488 224.304 65.8275 224.775 65.8275C225.542 65.8275 226.096 65.6563 226.438 65.3137C226.789 64.9712 226.965 64.4621 226.965 63.7863V62.6615L227.103 60.7869L227.075 58.8984V57.2876H229.127V63.5085C229.127 64.8972 228.766 65.9201 228.046 66.5774C227.325 67.2346 226.29 67.5633 224.941 67.5633ZM224.609 64.3973C223.916 64.3973 223.287 64.2491 222.724 63.9529C222.17 63.6474 221.721 63.2262 221.38 62.6893C221.047 62.1431 220.881 61.509 220.881 60.7869C220.881 60.0556 221.047 59.4214 221.38 58.8845C221.721 58.3383 222.17 57.9171 222.724 57.6209C223.287 57.3246 223.916 57.1765 224.609 57.1765C225.237 57.1765 225.791 57.3061 226.272 57.5653C226.752 57.8153 227.126 58.2087 227.394 58.7456C227.662 59.2733 227.796 59.9537 227.796 60.7869C227.796 61.6108 227.662 62.2912 227.394 62.8281C227.126 63.3558 226.752 63.7492 226.272 64.0084C225.791 64.2677 225.237 64.3973 224.609 64.3973ZM225.038 62.6198C225.417 62.6198 225.754 62.5458 226.05 62.3977C226.346 62.2403 226.577 62.0227 226.743 61.745C226.909 61.4673 226.992 61.1479 226.992 60.7869C226.992 60.4166 226.909 60.0972 226.743 59.8287C226.577 59.551 226.346 59.3381 226.05 59.19C225.754 59.0326 225.417 58.9539 225.038 58.9539C224.659 58.9539 224.322 59.0326 224.027 59.19C223.731 59.3381 223.495 59.551 223.32 59.8287C223.153 60.0972 223.07 60.4166 223.07 60.7869C223.07 61.1479 223.153 61.4673 223.32 61.745C223.495 62.0227 223.731 62.2403 224.027 62.3977C224.322 62.5458 224.659 62.6198 225.038 62.6198Z" fill="white"/>
<path d="M242.635 29.9598C242.724 29.9598 242.724 29.9598 242.815 29.9599C243.775 29.9623 244.693 30.0167 245.632 30.23C245.724 30.2504 245.724 30.2504 245.817 30.2712C247.598 30.6792 249.319 31.388 250.811 32.454C250.846 32.4786 250.88 32.5032 250.916 32.5285C251.132 32.6839 251.342 32.8452 251.551 33.01C251.61 33.0564 251.669 33.1028 251.73 33.1506C252.083 33.4344 252.409 33.733 252.723 34.0601C252.799 34.1366 252.799 34.1366 252.877 34.2146C252.953 34.291 252.953 34.291 253.031 34.369C253.065 34.4014 253.1 34.4338 253.135 34.4672C255.455 36.6922 256.911 40.2374 256.995 43.4253C256.999 43.709 257 43.9926 257 44.2764C257 44.366 257 44.366 257 44.4575C256.997 45.419 256.943 46.3392 256.73 47.2802C256.717 47.3411 256.703 47.4021 256.689 47.4649C256.121 49.957 254.935 52.0881 253.278 54.0138C253.237 54.0617 253.197 54.1097 253.156 54.1591C252.948 54.4047 252.729 54.6202 252.484 54.828C252.396 54.9034 252.31 54.981 252.226 55.0606C251.346 55.8903 250.335 56.5392 249.27 57.1026C249.199 57.1407 249.199 57.1407 249.126 57.1795C247.825 57.8626 246.4 58.2856 244.954 58.5234C244.887 58.5348 244.82 58.5462 244.752 58.5579C244.073 58.6618 243.401 58.6716 242.715 58.6702C242.656 58.6701 242.596 58.6701 242.534 58.6701C241.573 58.6676 240.654 58.6135 239.714 58.3999C239.653 58.3863 239.592 58.3727 239.529 58.3588C237.042 57.7891 234.915 56.6008 232.993 54.9404C232.946 54.9002 232.898 54.86 232.848 54.8186C232.603 54.6104 232.388 54.3911 232.181 54.1451C232.106 54.057 232.028 53.9707 231.949 53.8864C231.121 53.0046 230.473 51.9923 229.911 50.925C229.873 50.8534 229.873 50.8534 229.834 50.7804C228.823 48.8479 228.345 46.681 228.35 44.5094C228.35 44.3355 228.349 44.1617 228.347 43.9879C228.343 42.9332 228.469 41.9066 228.724 40.8825C228.748 40.7856 228.748 40.7856 228.772 40.6867C229.35 38.4143 230.492 36.2906 232.107 34.5884C232.255 34.4336 232.255 34.4336 232.382 34.2684C232.489 34.1357 232.594 34.0306 232.724 33.9212C232.859 33.8059 232.992 33.6906 233.121 33.5686C234.001 32.7393 235.011 32.0906 236.076 31.5273C236.124 31.502 236.171 31.4766 236.22 31.4504C238.206 30.4081 240.408 29.955 242.635 29.9598Z" fill="#DF2429"/>
<path d="M237.462 36.6311C237.892 36.8253 238.194 37.217 238.497 37.5659C238.726 37.8297 238.965 38.0843 239.205 38.3381C239.547 38.7004 239.886 39.0649 240.221 39.4332C240.42 39.6515 240.622 39.8673 240.823 40.0833C241.196 40.4825 241.565 40.8845 241.933 41.2879C242.06 41.427 242.188 41.566 242.315 41.7049C242.372 41.7677 242.43 41.8304 242.487 41.8932C242.528 41.9381 242.569 41.983 242.611 42.0292C242.793 41.9481 242.913 41.8634 243.047 41.717C243.082 41.6794 243.116 41.6418 243.152 41.6031C243.207 41.5427 243.207 41.5427 243.263 41.481C243.301 41.4393 243.339 41.3975 243.379 41.3545C243.493 41.2297 243.607 41.1044 243.721 40.9791C243.78 40.9145 243.839 40.85 243.898 40.7855C244.007 40.6666 244.116 40.5477 244.224 40.4286C244.46 40.1706 244.699 39.9153 244.938 39.6596C245.264 39.3099 245.588 38.9584 245.912 38.6064C246.004 38.5068 246.095 38.4073 246.187 38.3077C246.217 38.2745 246.248 38.2413 246.28 38.207C246.341 38.1403 246.403 38.0737 246.464 38.0071C246.623 37.8352 246.781 37.6622 246.936 37.4868C247.701 36.6256 247.701 36.6256 248.194 36.5669C248.714 36.5484 249.11 36.5774 249.498 36.9376C249.832 37.2982 249.966 37.6604 249.979 38.1485C249.892 38.6438 249.636 38.9895 249.289 39.3381C249.211 39.4191 249.133 39.5001 249.055 39.5811C249.018 39.6197 248.98 39.6584 248.942 39.6981C248.811 39.8337 248.686 39.9733 248.561 40.1142C248.291 40.4166 248.015 40.7123 247.738 41.0083C247.537 41.2231 247.339 41.4392 247.143 41.6586C246.91 41.9195 246.673 42.1754 246.434 42.4308C246.148 42.7369 245.865 43.045 245.586 43.3577C245.316 43.6585 245.042 43.9555 244.769 44.2532C244.85 44.4295 244.936 44.5609 245.07 44.7011C245.122 44.7569 245.122 44.7569 245.176 44.8138C245.232 44.8727 245.232 44.8727 245.29 44.9327C245.368 45.0161 245.447 45.0995 245.526 45.183C245.565 45.2243 245.604 45.2656 245.644 45.3081C245.8 45.4736 245.953 45.6411 246.106 45.8092C246.161 45.8687 246.215 45.9283 246.271 45.9897C246.325 46.0486 246.379 46.1075 246.434 46.1682C246.546 46.2906 246.657 46.4128 246.769 46.535C246.797 46.5655 246.825 46.5959 246.854 46.6273C247.094 46.8897 247.335 47.1512 247.576 47.4127C247.809 47.666 248.042 47.9201 248.274 48.1745C248.453 48.3702 248.633 48.5654 248.813 48.7602C248.906 48.8618 249 48.9636 249.093 49.0654C249.205 49.1868 249.317 49.3064 249.431 49.4255C249.791 49.8072 250.071 50.1647 250.102 50.7049C250.077 51.1571 249.924 51.5393 249.59 51.8478C249.232 52.1278 248.9 52.2649 248.444 52.2469C247.737 52.1385 247.29 51.5727 246.846 51.0604C246.618 50.7978 246.38 50.5444 246.141 50.2918C245.799 49.9295 245.461 49.565 245.125 49.1967C244.926 48.9785 244.724 48.7626 244.523 48.5466C244.15 48.1474 243.781 47.7455 243.413 47.342C243.286 47.2029 243.159 47.064 243.031 46.925C242.974 46.8623 242.917 46.7995 242.859 46.7368C242.818 46.6919 242.777 46.6469 242.735 46.6007C242.547 46.6841 242.425 46.7753 242.286 46.9264C242.248 46.9668 242.211 47.0072 242.172 47.0488C242.133 47.0921 242.093 47.1353 242.053 47.1798C242.012 47.2244 241.97 47.2689 241.928 47.3148C241.806 47.4471 241.685 47.5798 241.563 47.7126C241.502 47.78 241.44 47.8473 241.378 47.9146C241.268 48.0343 241.159 48.154 241.049 48.2739C240.569 48.8001 240.085 49.3222 239.599 49.8429C239.379 50.0789 239.16 50.316 238.943 50.5543C238.861 50.6443 238.778 50.7344 238.696 50.8244C238.629 50.8971 238.563 50.97 238.497 51.043C238.383 51.1687 238.268 51.294 238.153 51.4192C238.118 51.4585 238.082 51.4977 238.046 51.5382C237.688 51.9269 237.318 52.2178 236.774 52.2493C236.361 52.2395 236.025 52.0836 235.715 51.814C235.423 51.4987 235.272 51.1453 235.244 50.7165C235.284 49.9517 235.9 49.4501 236.399 48.9368C236.533 48.7984 236.662 48.656 236.789 48.5119C237.02 48.2521 237.257 47.9976 237.494 47.7435C237.733 47.4882 237.971 47.2323 238.203 46.9713C238.436 46.7104 238.674 46.4545 238.912 46.1991C239.198 45.893 239.482 45.5849 239.76 45.2722C240.03 44.9715 240.304 44.6744 240.577 44.3767C240.497 44.2004 240.41 44.069 240.277 43.9289C240.241 43.8917 240.206 43.8545 240.17 43.8161C240.133 43.7769 240.095 43.7376 240.057 43.6972C239.978 43.6138 239.899 43.5304 239.821 43.447C239.782 43.4057 239.743 43.3644 239.702 43.3218C239.546 43.1563 239.393 42.9888 239.24 42.8208C239.185 42.7612 239.131 42.7016 239.075 42.6403C238.994 42.5519 238.994 42.5519 238.912 42.4617C238.801 42.3394 238.689 42.2171 238.577 42.0949C238.549 42.0645 238.521 42.034 238.493 42.0027C238.253 41.7403 238.012 41.4787 237.77 41.2172C237.537 40.9639 237.304 40.7099 237.072 40.4553C236.925 40.2944 236.777 40.1342 236.629 39.975C235.357 38.6112 235.357 38.6112 235.375 37.869C235.439 37.4155 235.678 37.0683 236.03 36.7879C236.447 36.5115 236.982 36.5114 237.462 36.6311Z" fill="white"/>
</svg>
