<svg width="20" height="20" viewBox="0 0 20 20" fill="none" xmlns="http://www.w3.org/2000/svg">
<path d="M3.32032 3.35935C3.32088 3.39619 3.32145 3.43304 3.32204 3.471C3.32443 3.60824 3.32733 3.74545 3.33057 3.88268C3.33186 3.94197 3.33296 4.00126 3.33385 4.06056C3.33516 4.146 3.33721 4.23141 3.33939 4.31684C3.34041 4.36818 3.34143 4.41953 3.34249 4.47243C3.3601 4.61519 3.39679 4.68744 3.47657 4.80466C3.47657 4.83044 3.47657 4.85622 3.47657 4.88279C3.50718 4.89487 3.5378 4.90696 3.56934 4.91941C3.67188 4.96091 3.67188 4.96091 3.75 4.99997C3.84417 5.00477 3.93716 5.00733 4.03137 5.00791C4.07329 5.00824 4.07329 5.00824 4.11606 5.00858C4.17529 5.00895 4.23453 5.00921 4.29377 5.00936C4.38388 5.00974 4.47396 5.01095 4.56406 5.01218C4.62169 5.01244 4.67931 5.01264 4.73694 5.01279C4.76368 5.01327 4.79043 5.01376 4.81798 5.01425C4.99846 5.01342 5.12066 4.97849 5.27344 4.88279C5.63912 4.4084 5.48355 4.08737 5.50782 3.35935C8.47266 3.35935 11.4375 3.35935 14.4922 3.35935C14.5051 3.74607 14.518 4.13279 14.5313 4.53122C14.6473 4.80612 14.6473 4.80612 14.8438 4.96091C14.9806 5.00653 15.105 5.00703 15.2475 5.00791C15.2755 5.00813 15.3035 5.00835 15.3323 5.00858C15.3915 5.00895 15.4506 5.00921 15.5098 5.00936C15.6 5.00974 15.6902 5.01095 15.7803 5.01218C15.8379 5.01244 15.8955 5.01264 15.9531 5.01279C15.9799 5.01327 16.0067 5.01376 16.0343 5.01425C16.2061 5.01346 16.3048 4.97947 16.4453 4.88279C16.4711 4.88279 16.4969 4.88279 16.5234 4.88279C16.5416 4.83686 16.5416 4.83686 16.5601 4.79001C16.6016 4.68747 16.6016 4.68747 16.6406 4.60935C16.6467 4.51538 16.6507 4.42236 16.653 4.32828C16.6542 4.28683 16.6542 4.28683 16.6554 4.24454C16.658 4.15619 16.6603 4.06783 16.6626 3.97947C16.6643 3.9196 16.666 3.85973 16.6677 3.79987C16.6719 3.65303 16.6759 3.50619 16.6797 3.35935C17.3235 3.34022 17.8474 3.38143 18.3496 3.83298C18.5841 4.08084 18.7545 4.43672 18.7554 4.778C18.7557 4.84303 18.7557 4.84303 18.756 4.90937C18.756 4.95719 18.756 5.00502 18.756 5.05429C18.7562 5.10494 18.7564 5.1556 18.7565 5.20779C18.757 5.34869 18.7572 5.4896 18.7574 5.6305C18.7576 5.78237 18.7581 5.93423 18.7585 6.0861C18.7595 6.45307 18.76 6.82004 18.7605 7.18702C18.7607 7.29069 18.7608 7.39436 18.761 7.49803C18.762 8.14193 18.7628 8.78584 18.7633 9.42974C18.7634 9.57891 18.7636 9.72809 18.7637 9.87726C18.7637 9.91434 18.7637 9.95142 18.7638 9.98962C18.7643 10.5898 18.7656 11.1901 18.7672 11.7903C18.7688 12.4067 18.7698 13.0231 18.77 13.6395C18.7701 13.9855 18.7706 14.3315 18.7718 14.6775C18.7729 14.9723 18.7734 15.2671 18.7729 15.5619C18.7727 15.7122 18.7728 15.8625 18.7738 16.0128C18.7749 16.176 18.7744 16.3393 18.7738 16.5026C18.7743 16.5496 18.7748 16.5967 18.7754 16.6451C18.771 17.1154 18.6178 17.4714 18.2913 17.8076C17.9582 18.1211 17.587 18.2468 17.1294 18.2473C17.0778 18.2474 17.0263 18.2476 16.9731 18.2477C16.916 18.2477 16.8588 18.2477 16.8017 18.2476C16.7409 18.2477 16.6801 18.2479 16.6194 18.248C16.4523 18.2483 16.2852 18.2484 16.1181 18.2484C15.9379 18.2485 15.7578 18.2488 15.5776 18.249C15.1836 18.2496 14.7896 18.2498 14.3956 18.25C14.1495 18.2501 13.9034 18.2503 13.6574 18.2504C12.9761 18.2509 12.2948 18.2513 11.6134 18.2514C11.548 18.2515 11.548 18.2515 11.4813 18.2515C11.4376 18.2515 11.3939 18.2515 11.3488 18.2515C11.2603 18.2515 11.1717 18.2515 11.0831 18.2515C11.0172 18.2516 11.0172 18.2516 10.95 18.2516C10.2382 18.2517 9.52645 18.2524 8.81467 18.2533C8.08382 18.2542 7.35297 18.2547 6.62212 18.2548C6.2118 18.2548 5.8015 18.255 5.39118 18.2557C5.04176 18.2563 4.69235 18.2565 4.34292 18.2562C4.16471 18.2561 3.9865 18.2561 3.80828 18.2567C3.64495 18.2572 3.48163 18.2571 3.31831 18.2566C3.2594 18.2566 3.20048 18.2567 3.14157 18.257C2.58377 18.26 2.09604 18.1773 1.67237 17.7905C1.42762 17.534 1.24552 17.1803 1.24465 16.8235C1.24445 16.7802 1.24425 16.7368 1.24405 16.6921C1.24403 16.6443 1.24401 16.5965 1.24399 16.5472C1.24382 16.4966 1.24365 16.4459 1.24347 16.3937C1.243 16.2528 1.24278 16.1119 1.24261 15.971C1.24237 15.8191 1.24192 15.6673 1.2415 15.5154C1.24054 15.1484 1.23997 14.7815 1.23947 14.4145C1.23932 14.3108 1.23917 14.2072 1.23901 14.1035C1.23802 13.4596 1.23716 12.8157 1.23667 12.1718C1.23656 12.0226 1.23644 11.8734 1.23633 11.7242C1.2363 11.6872 1.23627 11.6501 1.23624 11.6119C1.23574 11.0117 1.23445 10.4114 1.23282 9.8112C1.23116 9.19481 1.23024 8.57842 1.23004 7.96203C1.2299 7.61601 1.22945 7.27 1.22816 6.92398C1.22706 6.6292 1.22664 6.33442 1.22707 6.03963C1.22727 5.88933 1.22717 5.73905 1.22619 5.58876C1.22515 5.42547 1.22563 5.26222 1.22625 5.09893C1.22571 5.05189 1.22517 5.00485 1.22461 4.95639C1.22893 4.49317 1.37859 4.12873 1.70121 3.79651C2.18441 3.36417 2.70389 3.34104 3.32032 3.35935ZM6.76163 8.19577C5.88495 9.07929 5.45855 10.2475 5.45903 11.4825C5.47227 12.6921 5.99602 13.818 6.85023 14.6659C7.72292 15.4948 8.90135 15.9586 10.105 15.9433C11.4076 15.8849 12.5381 15.3285 13.4239 14.3814C14.2656 13.4139 14.6066 12.2066 14.5313 10.9375C14.4322 10.031 14.0805 9.16238 13.4766 8.47654C13.4498 8.44461 13.423 8.41269 13.3954 8.3798C12.5757 7.42742 11.4583 6.95153 10.2296 6.84613C8.9239 6.75803 7.68697 7.29752 6.76163 8.19577Z" fill="black"/>
<path d="M12.6731 8.4595C13.4156 9.16141 13.9237 10.1016 13.953 11.1402C13.959 11.5833 13.9474 11.9926 13.8279 12.4219C13.8086 12.4931 13.8086 12.4931 13.789 12.5658C13.4807 13.5909 12.7637 14.3965 11.8333 14.9073C10.9306 15.3844 9.84522 15.4874 8.86695 15.1905C7.85259 14.8643 6.9897 14.1833 6.48387 13.2404C6.03348 12.3549 5.90601 11.3129 6.17163 10.3516C6.18206 10.3127 6.19248 10.2738 6.20322 10.2338C6.4959 9.26081 7.16003 8.41983 8.04906 7.92384C9.55862 7.13032 11.4011 7.29684 12.6731 8.4595ZM8.48609 9.8096C8.39167 9.91295 8.39167 9.91295 8.3766 10.029C8.40878 10.2186 8.5185 10.3023 8.65592 10.43C8.68202 10.4553 8.70813 10.4806 8.73502 10.5067C8.81833 10.5874 8.90236 10.6673 8.98658 10.7471C9.07089 10.8272 9.15501 10.9074 9.23855 10.9883C9.29051 11.0386 9.34293 11.0885 9.39583 11.1378C9.41929 11.1605 9.44276 11.1832 9.46693 11.2066C9.49829 11.2362 9.49829 11.2362 9.53028 11.2665C9.57007 11.3282 9.57007 11.3282 9.5635 11.4066C9.52809 11.4914 9.4922 11.5372 9.42679 11.6013C9.39414 11.6338 9.39414 11.6338 9.36083 11.6669C9.32543 11.7012 9.32543 11.7012 9.28931 11.7362C9.26518 11.76 9.24105 11.7839 9.21619 11.8085C9.13911 11.8847 9.06165 11.9604 8.98413 12.0362C8.90669 12.1122 8.82933 12.1884 8.75208 12.2647C8.70399 12.3121 8.65578 12.3594 8.60744 12.4066C8.44508 12.5612 8.44508 12.5612 8.38355 12.7686C8.38682 12.8965 8.38682 12.8965 8.48365 12.9834C8.60544 13.0538 8.65141 13.0647 8.78882 13.0469C8.88161 12.9864 8.88161 12.9864 8.96796 12.8994C9.00189 12.8672 9.03581 12.8351 9.07077 12.802C9.10663 12.7668 9.1425 12.7316 9.17945 12.6953C9.19782 12.6774 9.2162 12.6594 9.23513 12.6409C9.36916 12.5097 9.5015 12.3769 9.63355 12.2437C9.67316 12.2039 9.71278 12.1641 9.75241 12.1243C9.84799 12.0283 9.94344 11.9322 10.0388 11.836C10.2155 11.9793 10.3765 12.1333 10.5344 12.2969C10.5543 12.3174 10.5743 12.3379 10.5948 12.359C10.6781 12.4448 10.7613 12.5305 10.8436 12.6172C10.9044 12.6811 10.9659 12.7442 11.0276 12.8072C11.0458 12.8268 11.0641 12.8463 11.0829 12.8665C11.2205 13.0053 11.3291 13.0423 11.5232 13.0469C11.6271 12.9758 11.6676 12.9143 11.7234 12.8028C11.7076 12.4554 11.2162 12.1066 10.9812 11.875C10.9352 11.8294 10.8892 11.7838 10.8433 11.7382C10.7316 11.6273 10.6196 11.5167 10.5076 11.4063C10.6492 11.2331 10.7996 11.0723 10.9586 10.9151C10.9782 10.8958 10.9977 10.8765 11.0178 10.8565C11.0996 10.7759 11.1815 10.6954 11.2635 10.615C11.324 10.5557 11.3842 10.4962 11.4445 10.4366C11.4802 10.4015 11.5159 10.3664 11.5528 10.3303C11.6585 10.2146 11.72 10.1389 11.7161 9.9805C11.6657 9.84618 11.6077 9.798 11.4841 9.72659C11.3202 9.72552 11.2326 9.76987 11.1156 9.87767C11.0667 9.92655 11.0184 9.97597 10.9705 10.0258C10.9448 10.0518 10.9192 10.0777 10.8927 10.1045C10.8111 10.1872 10.7301 10.2706 10.6492 10.354C10.5938 10.4104 10.5384 10.4666 10.483 10.5229C10.3474 10.6606 10.2125 10.7989 10.0779 10.9375C9.90637 10.794 9.74344 10.6463 9.5867 10.4865C9.54737 10.4467 9.50802 10.4068 9.46868 10.367C9.40792 10.3053 9.34723 10.2435 9.28663 10.1816C9.22732 10.1211 9.16777 10.0609 9.10819 10.0006C9.07311 9.9649 9.03803 9.92916 9.00188 9.89234C8.83421 9.7391 8.68842 9.65325 8.48609 9.8096Z" fill="black"/>
<path d="M15.0781 1.75781C15.4133 1.75781 15.7484 1.75781 16.0938 1.75781C16.0938 2.64727 16.0938 3.53672 16.0938 4.45312C15.7586 4.45312 15.4234 4.45312 15.0781 4.45312C15.0781 3.56367 15.0781 2.67422 15.0781 1.75781Z" fill="black"/>
<path d="M3.90625 1.75781C4.24141 1.75781 4.57656 1.75781 4.92188 1.75781C4.92188 2.64727 4.92188 3.53672 4.92188 4.45312C4.58672 4.45312 4.25156 4.45312 3.90625 4.45312C3.90625 3.56367 3.90625 2.67422 3.90625 1.75781Z" fill="black"/>
</svg>
