<svg width="30" height="30" viewBox="0 0 30 30" fill="none" xmlns="http://www.w3.org/2000/svg">
<circle cx="15" cy="15" r="15" fill="#DF2429"/>
<g clip-path="url(#clip0_258_7861)">
<path d="M14.7558 5.98684C14.7979 5.98635 14.8399 5.98586 14.8832 5.98535C15.1243 5.98668 15.2983 5.99664 15.4859 6.16221C15.6246 6.32798 15.6913 6.46066 15.716 6.67898C15.6943 6.89271 15.6236 7.08407 15.4589 7.22829C15.2939 7.33942 15.1632 7.37926 14.965 7.38842C14.9239 7.39062 14.8828 7.39283 14.8404 7.3951C14.7966 7.39734 14.7527 7.39957 14.7075 7.40188C12.6851 7.5263 10.8487 8.33352 9.44174 9.80349C9.38263 9.8704 9.3259 9.93883 9.26925 10.0078C9.24356 10.0371 9.21786 10.0663 9.19139 10.0964C7.89023 11.599 7.28991 13.6003 7.41308 15.5707C7.49922 16.615 7.78451 17.6296 8.28488 18.5508C8.29724 18.5741 8.30961 18.5973 8.32235 18.6213C8.74293 19.4114 9.31339 20.1606 10.0075 20.7305C10.0368 20.7562 10.066 20.7819 10.0961 20.8084C11.5987 22.1095 13.6 22.7098 15.5704 22.5867C16.6147 22.5005 17.6293 22.2152 18.5505 21.7149C18.5738 21.7025 18.597 21.6901 18.621 21.6774C19.4111 21.2568 20.1603 20.6863 20.7302 19.9922C20.7559 19.963 20.7816 19.9337 20.8081 19.9036C21.9514 18.5833 22.5323 16.8997 22.5984 15.1686C22.6125 14.8797 22.6459 14.6456 22.8703 14.4419C23.0566 14.3152 23.2126 14.2775 23.4372 14.2969C23.6823 14.3458 23.824 14.4816 23.9646 14.6836C24.149 15.2369 23.9948 16.0164 23.8943 16.5821C23.8884 16.615 23.8826 16.6479 23.8765 16.6818C23.6067 18.1443 22.9653 19.5064 22.031 20.6602C22.0155 20.6793 22 20.6985 21.9841 20.7182C21.5806 21.2129 21.1318 21.6775 20.6247 22.0664C20.592 22.0931 20.5593 22.1198 20.5256 22.1473C19.3917 23.0564 18.0047 23.6354 16.5818 23.8946C16.5524 23.9003 16.523 23.9061 16.4927 23.912C15.5186 24.098 14.3897 24.085 13.4177 23.8946C13.3856 23.8887 13.3535 23.8829 13.3204 23.8768C11.8568 23.6075 10.4941 22.9662 9.33956 22.0313C9.32042 22.0158 9.30128 22.0003 9.28156 21.9844C8.78685 21.5809 8.32225 21.1321 7.93331 20.625C7.90662 20.5923 7.87993 20.5596 7.85243 20.5259C6.94333 19.392 6.36436 18.005 6.10519 16.5821C6.09943 16.5527 6.09368 16.5233 6.08775 16.493C5.90176 15.5189 5.91476 14.39 6.10519 13.418C6.11104 13.3859 6.11688 13.3538 6.1229 13.3207C6.39219 11.8571 7.03353 10.4944 7.96847 9.33986C7.98394 9.32072 7.99941 9.30158 8.01535 9.28186C8.41888 8.78715 8.86767 8.32255 9.37472 7.93361C9.40744 7.90692 9.44016 7.88023 9.47387 7.85273C10.6045 6.94619 11.9965 6.35793 13.4177 6.10549C13.4662 6.09686 13.4662 6.09686 13.5158 6.08805C13.9286 6.01786 14.3371 5.99001 14.7558 5.98684Z" fill="#F9F9F9"/>
<path d="M23.3411 8.30057C23.5077 8.3981 23.6126 8.52826 23.6839 8.70707C23.7284 8.96881 23.706 9.14794 23.5638 9.36858C23.4641 9.50602 23.345 9.62264 23.2246 9.74178C23.1962 9.77027 23.1679 9.79876 23.1386 9.82812C23.0439 9.92312 22.9488 10.0177 22.8536 10.1124C22.7854 10.1805 22.7173 10.2488 22.6492 10.317C22.4836 10.4829 22.3176 10.6484 22.1516 10.8139C21.9581 11.0068 21.7649 11.2 21.5716 11.3932C21.2267 11.738 20.8816 12.0826 20.5363 12.4271C20.2016 12.7609 19.8671 13.0949 19.5328 13.4291C19.5122 13.4497 19.4916 13.4703 19.4704 13.4915C19.4289 13.533 19.3874 13.5744 19.346 13.6159C19.3255 13.6363 19.305 13.6568 19.284 13.6779C19.2533 13.7085 19.2533 13.7085 19.2221 13.7397C18.903 14.0587 18.5837 14.3776 18.2644 14.6964C18.1489 14.8118 18.0334 14.9271 17.918 15.0425C17.7347 15.2256 17.5515 15.4086 17.368 15.5915C17.2843 15.675 17.2006 15.7585 17.117 15.8421C17.0261 15.9329 16.9351 16.0236 16.8441 16.1143C16.8049 16.1536 16.8049 16.1536 16.7649 16.1936C16.6229 16.3348 16.4778 16.47 16.3258 16.6004C16.2463 16.6695 16.172 16.7429 16.098 16.818C16.0684 16.848 16.0387 16.878 16.0081 16.9089C15.9615 16.9563 15.9615 16.9563 15.914 17.0046C15.8809 17.038 15.8478 17.0714 15.8148 17.1047C15.6756 17.2451 15.5366 17.3856 15.3979 17.5264C15.3291 17.5963 15.2602 17.666 15.1911 17.7356C15.1263 17.8008 15.0617 17.8663 14.9974 17.932C14.9681 17.9614 14.9387 17.9909 14.9085 18.0213C14.8829 18.0472 14.8572 18.0732 14.8309 18.0999C14.6872 18.2202 14.5537 18.2447 14.3697 18.2454C14.3346 18.246 14.2995 18.2466 14.2633 18.2472C14.0219 18.2183 13.8803 18.0785 13.7193 17.9114C13.7005 17.8924 13.6817 17.8735 13.6624 17.8539C13.5383 17.7275 13.4214 17.5959 13.3054 17.4621C13.2009 17.3433 13.092 17.2287 12.9832 17.1138C12.8139 16.9341 12.6465 16.753 12.4821 16.5687C12.3737 16.4489 12.2632 16.3309 12.1527 16.2129C12.0165 16.0676 11.881 15.922 11.7484 15.7735C11.6171 15.6265 11.4831 15.4823 11.3485 15.3384C11.1345 15.1098 10.9222 14.8798 10.7113 14.6485C10.6814 14.6161 10.6515 14.5838 10.6208 14.5504C10.5926 14.5197 10.5645 14.489 10.5355 14.4573C10.5108 14.4305 10.4862 14.4037 10.4608 14.3762C10.3044 14.1882 10.2378 14.0254 10.2424 13.7796C10.2701 13.591 10.3548 13.418 10.4944 13.2875C10.6816 13.1598 10.8497 13.1264 11.0723 13.1425C11.4667 13.2177 11.7346 13.6225 11.9843 13.9093C12.0877 14.0263 12.1949 14.1396 12.3021 14.253C12.5238 14.4885 12.7432 14.7259 12.9613 14.9649C13.025 15.0345 13.0887 15.1041 13.1524 15.1736C13.1762 15.1996 13.1762 15.1996 13.2005 15.2261C13.3197 15.3561 13.4392 15.4857 13.5589 15.6153C13.6292 15.6914 13.6995 15.7676 13.7698 15.8438C13.7873 15.8627 13.8047 15.8816 13.8227 15.901C14.0078 16.1017 14.1918 16.3028 14.3675 16.5118C14.5461 16.3622 14.7134 16.2059 14.8775 16.0409C14.9157 16.0027 14.9157 16.0027 14.9546 15.9639C15.0392 15.8792 15.1238 15.7944 15.2083 15.7096C15.2692 15.6486 15.3301 15.5877 15.3909 15.5267C15.5218 15.3958 15.6526 15.2647 15.7834 15.1336C15.9728 14.9438 16.1623 14.7541 16.3518 14.5645C16.6597 14.2563 16.9675 13.9481 17.2753 13.6398C17.2937 13.6214 17.3121 13.603 17.3311 13.584C17.4803 13.4345 17.6295 13.285 17.7787 13.1356C17.9091 13.005 18.0395 12.8744 18.1699 12.7437C18.1883 12.7254 18.2067 12.707 18.2256 12.688C18.5322 12.3809 18.8389 12.0738 19.1457 11.7668C19.3346 11.5777 19.5235 11.3886 19.7123 11.1993C19.8571 11.0542 20.0019 10.9092 20.1468 10.7642C20.2061 10.7049 20.2653 10.6455 20.3246 10.5861C20.4056 10.5049 20.4867 10.4237 20.5678 10.3426C20.5911 10.3192 20.6143 10.2959 20.6382 10.2718C20.7732 10.1371 20.9122 10.0092 21.0568 9.8849C21.1351 9.81671 21.2084 9.74442 21.2811 9.67026C21.3242 9.62646 21.3242 9.62646 21.3682 9.58177C21.3983 9.55107 21.4283 9.52037 21.4593 9.48875C21.5079 9.43958 21.5565 9.39042 21.6051 9.34128C21.7237 9.22136 21.8421 9.10129 21.9601 8.9808C22.0268 8.91275 22.0936 8.8449 22.1607 8.77725C22.2235 8.71387 22.286 8.65022 22.3483 8.58627C22.6314 8.30192 22.9395 8.13314 23.3411 8.30057Z" fill="#F9F9F9"/>
</g>
<defs>
<clipPath id="clip0_258_7861">
<rect width="18" height="18" fill="white" transform="translate(6 6)"/>
</clipPath>
</defs>
</svg>
