<svg width="15" height="15" viewBox="0 0 15 15" fill="none" xmlns="http://www.w3.org/2000/svg">
<path d="M9.375 8.75L7.5 10.625L5.625 8.75" stroke="white" stroke-linecap="round" stroke-linejoin="round"/>
<path d="M7.5 10.625V1.875" stroke="white" stroke-linecap="round" stroke-linejoin="round"/>
<path d="M9.92676 5.73535H11.8018C11.9675 5.73535 12.1265 5.8012 12.2437 5.91841C12.3609 6.03562 12.4268 6.19459 12.4268 6.36035V11.9854C12.4268 12.1511 12.3609 12.3101 12.2437 12.4273C12.1265 12.5445 11.9675 12.6104 11.8018 12.6104H3.05176C2.886 12.6104 2.72703 12.5445 2.60982 12.4273C2.49261 12.3101 2.42676 12.1511 2.42676 11.9854V6.36035C2.42676 6.19459 2.49261 6.03562 2.60982 5.91841C2.72703 5.8012 2.886 5.73535 3.05176 5.73535H4.92676" stroke="white" stroke-linecap="round" stroke-linejoin="round"/>
</svg>
