<svg width="30" height="31" viewBox="0 0 30 31" fill="none" xmlns="http://www.w3.org/2000/svg">
<g clip-path="url(#clip0_82_5333)">
<path d="M18.9366 17.7581C19.0043 17.822 19.0704 17.8872 19.136 17.9532C19.1608 17.9778 19.1856 18.0023 19.2112 18.0276C19.2922 18.108 19.3728 18.1888 19.4534 18.2696C19.5101 18.3261 19.5667 18.3826 19.6234 18.439C19.7418 18.5571 19.86 18.6754 19.978 18.7937C20.1289 18.945 20.2803 19.0957 20.4318 19.2462C20.5488 19.3626 20.6655 19.4793 20.7822 19.5961C20.8378 19.6518 20.8936 19.7074 20.9495 19.7628C21.0278 19.8405 21.1055 19.9187 21.1832 19.997C21.2061 20.0195 21.2289 20.042 21.2525 20.0652C21.4723 20.2886 21.6469 20.5438 21.6556 20.865C21.6521 21.1355 21.5765 21.3589 21.3942 21.5615C21.171 21.7624 20.9103 21.8388 20.613 21.8251C20.0814 21.7508 19.6689 21.1783 19.3083 20.8187C19.2701 20.7807 19.2701 20.7807 19.2312 20.7419C19.0968 20.6081 18.9626 20.4742 18.8285 20.3402C18.6905 20.2024 18.5522 20.0649 18.4138 19.9276C18.3067 19.8212 18.1999 19.7146 18.0932 19.6079C18.0423 19.5571 17.9913 19.5064 17.9403 19.4558C17.8689 19.385 17.7978 19.3139 17.7268 19.2426C17.6956 19.2119 17.6956 19.2119 17.6637 19.1805C17.4319 18.9464 17.2533 18.6895 17.249 18.351C17.2648 18.0934 17.341 17.9026 17.5094 17.7075C17.9805 17.3037 18.477 17.3639 18.9366 17.7581Z" fill="#DF2429"/>
<path d="M12.4369 17.6364C12.6168 17.8031 12.725 18.0168 12.75 18.261C12.7563 18.7557 12.4665 19.0315 12.1406 19.3665C12.002 19.508 11.8625 19.6484 11.7228 19.7888C11.6975 19.8142 11.6722 19.8397 11.6461 19.8659C11.5125 20.0002 11.3788 20.1345 11.245 20.2686C11.1074 20.4065 10.9703 20.5449 10.8333 20.6833C10.7271 20.7904 10.6206 20.8972 10.5141 21.0039C10.4634 21.0547 10.4128 21.1057 10.3623 21.1568C10.2917 21.2283 10.2207 21.2993 10.1495 21.3703C10.1291 21.3911 10.1087 21.4119 10.0877 21.4334C9.87025 21.6482 9.61444 21.8143 9.30249 21.8228C9.03198 21.8192 8.80855 21.7436 8.60596 21.5613C8.43163 21.3676 8.35026 21.1432 8.3335 20.8846C8.36887 20.3515 8.79051 20.0114 9.14621 19.6608C9.2036 19.6035 9.26095 19.5462 9.31827 19.4889C9.43798 19.3694 9.55804 19.2502 9.67838 19.1312C9.8322 18.9792 9.98531 18.8265 10.1382 18.6735C10.2564 18.5554 10.3749 18.4375 10.4934 18.3197C10.55 18.2635 10.6065 18.2072 10.6629 18.1508C10.7419 18.0721 10.8212 17.9937 10.9006 17.9154C10.9236 17.8924 10.9465 17.8694 10.9702 17.8456C11.3896 17.4349 11.9203 17.2509 12.4369 17.6364Z" fill="#DF2429"/>
<path d="M21.1774 8.6175C21.4041 8.74789 21.5353 8.92165 21.6214 9.16737C21.6825 9.41493 21.6757 9.65403 21.5553 9.88196C21.3274 10.2488 20.9548 10.5553 20.6513 10.8595C20.6133 10.8977 20.6133 10.8977 20.5745 10.9366C20.4407 11.071 20.3068 11.2052 20.1728 11.3394C20.035 11.4773 19.8975 11.6156 19.7602 11.754C19.6538 11.8611 19.5472 11.9679 19.4405 12.0746C19.3897 12.1255 19.339 12.1765 19.2884 12.2275C19.2176 12.2989 19.1465 12.37 19.0752 12.441C19.0547 12.4618 19.0342 12.4827 19.0131 12.5041C18.7515 12.7631 18.5008 12.8975 18.129 12.9177C17.8816 12.9055 17.6808 12.7981 17.4962 12.6364C17.3093 12.4204 17.235 12.1614 17.2545 11.8784C17.3397 11.3309 17.9061 10.9191 18.2773 10.5462C18.3026 10.5207 18.3279 10.4953 18.354 10.469C18.4876 10.3347 18.6213 10.2005 18.7551 10.0663C18.8927 9.92841 19.0298 9.79008 19.1668 9.65166C19.273 9.54457 19.3795 9.43779 19.486 9.33109C19.5367 9.28023 19.5873 9.22926 19.6377 9.17816C19.7084 9.10667 19.7794 9.03564 19.8506 8.9647C19.8812 8.93344 19.8812 8.93344 19.9124 8.90154C20.2682 8.55016 20.7044 8.40203 21.1774 8.6175Z" fill="#DF2429"/>
<path d="M9.71427 8.61226C10.0811 8.84022 10.3876 9.21279 10.6918 9.51626C10.7173 9.54161 10.7427 9.56696 10.769 9.59307C10.9033 9.72688 11.0375 9.86078 11.1717 9.99478C11.3097 10.1326 11.448 10.27 11.5863 10.4074C11.6934 10.5138 11.8002 10.6204 11.9069 10.7271C11.9578 10.7779 12.0088 10.8286 12.0598 10.8792C12.1313 10.95 12.2023 11.0211 12.2733 11.0923C12.2941 11.1128 12.315 11.1334 12.3365 11.1545C12.5682 11.3886 12.7468 11.6455 12.7511 11.9839C12.7353 12.2416 12.6592 12.4324 12.4907 12.6275C12.2426 12.8401 12.01 12.9291 11.6791 12.9134C11.347 12.8563 11.0946 12.6138 10.8647 12.3834C10.8399 12.359 10.8152 12.3346 10.7897 12.3095C10.7088 12.2296 10.6284 12.1494 10.5479 12.0691C10.4914 12.0128 10.4348 11.9566 10.3782 11.9004C10.2599 11.7828 10.1419 11.665 10.024 11.547C9.87363 11.3966 9.72251 11.2469 9.57119 11.0974C9.45419 10.9816 9.33768 10.8653 9.2213 10.7489C9.16581 10.6935 9.11016 10.6383 9.05433 10.5833C8.36328 9.90145 8.36328 9.90145 8.3335 9.45021C8.35228 9.16046 8.4529 8.9112 8.6705 8.71536C8.97724 8.49383 9.37272 8.4319 9.71427 8.61226Z" fill="#DF2429"/>
<path d="M15.3846 18.8148C15.6665 18.9616 15.8139 19.1554 15.9142 19.4564C15.9175 19.5106 15.9189 19.565 15.9191 19.6193C15.9193 19.6528 15.9195 19.6863 15.9197 19.7207C15.9198 19.7574 15.9198 19.794 15.9198 19.8318C15.9201 19.8898 15.9201 19.8898 15.9204 19.9489C15.9209 20.0771 15.9211 20.2053 15.9213 20.3335C15.9215 20.4226 15.9217 20.5116 15.9219 20.6006C15.9222 20.7636 15.9225 20.9266 15.9226 21.0895C15.9227 21.329 15.9233 21.5684 15.9244 21.8078C15.9252 22.0155 15.9255 22.2232 15.9256 22.4309C15.9257 22.5191 15.9259 22.6073 15.9264 22.6955C15.927 22.819 15.9269 22.9425 15.9267 23.0661C15.9272 23.1205 15.9272 23.1205 15.9277 23.176C15.9259 23.4936 15.8551 23.7299 15.6328 23.9646C15.408 24.1635 15.1692 24.1925 14.875 24.183C14.6062 24.1482 14.4088 24.0258 14.2356 23.8206C14.0896 23.5717 14.0706 23.3519 14.0718 23.0694C14.0716 23.0308 14.0714 22.9922 14.0711 22.9524C14.0705 22.8253 14.0706 22.6982 14.0708 22.5712C14.0706 22.4825 14.0705 22.3938 14.0702 22.3051C14.0699 22.1194 14.07 21.9337 14.0704 21.7481C14.0708 21.5341 14.0703 21.3201 14.0693 21.1062C14.0685 20.8995 14.0684 20.6928 14.0686 20.4862C14.0686 20.3986 14.0684 20.311 14.068 20.2235C14.0674 20.1009 14.0678 19.9783 14.0684 19.8558C14.0681 19.8199 14.0677 19.784 14.0674 19.747C14.0702 19.4718 14.1432 19.276 14.286 19.0433C14.5776 18.7596 15.0037 18.6515 15.3846 18.8148Z" fill="#DF2429"/>
<path d="M19.4518 14.2483C19.4853 14.2481 19.5188 14.2479 19.5532 14.2477C19.5899 14.2477 19.6266 14.2476 19.6643 14.2476C19.703 14.2474 19.7416 14.2472 19.7815 14.2471C19.9096 14.2466 20.0378 14.2463 20.166 14.2461C20.2551 14.2459 20.3441 14.2457 20.4331 14.2455C20.5961 14.2452 20.7591 14.245 20.922 14.2449C21.1615 14.2447 21.4009 14.2441 21.6403 14.2431C21.848 14.2422 22.0557 14.2419 22.2634 14.2419C22.3516 14.2418 22.4398 14.2415 22.528 14.241C22.6515 14.2404 22.775 14.2405 22.8986 14.2407C22.9349 14.2404 22.9712 14.2401 23.0086 14.2397C23.3261 14.2416 23.5624 14.3124 23.7971 14.5346C23.996 14.7595 24.025 14.9982 24.0155 15.2924C23.9807 15.5612 23.8583 15.7587 23.6531 15.9318C23.4042 16.0779 23.1844 16.0968 22.9019 16.0956C22.844 16.096 22.844 16.096 22.7849 16.0963C22.6578 16.097 22.5307 16.0968 22.4037 16.0966C22.315 16.0968 22.2263 16.097 22.1376 16.0972C21.9519 16.0975 21.7662 16.0974 21.5806 16.0971C21.3666 16.0967 21.1526 16.0972 20.9387 16.0981C20.732 16.099 20.5253 16.0991 20.3187 16.0988C20.2311 16.0988 20.1435 16.099 20.056 16.0995C19.9334 16.1 19.8109 16.0996 19.6883 16.099C19.6344 16.0995 19.6344 16.0995 19.5795 16.1001C19.3043 16.0972 19.1085 16.0242 18.8758 15.8814C18.6488 15.6481 18.5731 15.385 18.5758 15.0669C18.5965 14.8379 18.7023 14.6245 18.867 14.4642C19.0555 14.3436 19.2246 14.2491 19.4518 14.2483Z" fill="#DF2429"/>
<path d="M7.09808 14.2393C7.15601 14.239 7.15601 14.239 7.21512 14.2386C7.34219 14.238 7.46924 14.2381 7.59631 14.2383C7.68501 14.2381 7.77371 14.2379 7.8624 14.2377C8.04808 14.2374 8.23375 14.2375 8.41942 14.2379C8.63339 14.2383 8.84734 14.2378 9.0613 14.2368C9.26797 14.2359 9.47464 14.2359 9.68131 14.2361C9.76887 14.2361 9.85643 14.2359 9.94399 14.2354C10.0666 14.2349 10.1891 14.2353 10.3117 14.2359C10.3656 14.2354 10.3656 14.2354 10.4205 14.2349C10.6956 14.2377 10.8915 14.3107 11.1242 14.4535C11.3512 14.6868 11.4269 14.95 11.4242 15.268C11.4035 15.497 11.2977 15.7104 11.133 15.8707C10.9445 15.9913 10.7754 16.0858 10.5481 16.0866C10.5147 16.0868 10.4812 16.087 10.4467 16.0872C10.4101 16.0872 10.3734 16.0873 10.3357 16.0873C10.297 16.0875 10.2584 16.0877 10.2185 16.0878C10.0903 16.0884 9.96215 16.0886 9.83395 16.0888C9.74492 16.089 9.65589 16.0892 9.56686 16.0894C9.40388 16.0897 9.24091 16.0899 9.07793 16.0901C8.8385 16.0902 8.59908 16.0908 8.35965 16.0918C8.15194 16.0927 7.94424 16.093 7.73654 16.093C7.64836 16.0931 7.56018 16.0934 7.47201 16.0939C7.34847 16.0945 7.22496 16.0944 7.10142 16.0942C7.06512 16.0945 7.02882 16.0948 6.99143 16.0952C6.67389 16.0933 6.4376 16.0226 6.20284 15.8003C6.00398 15.5755 5.97496 15.3367 5.98448 15.0425C6.01926 14.7737 6.14168 14.5762 6.34689 14.4031C6.59574 14.257 6.81558 14.2381 7.09808 14.2393Z" fill="#DF2429"/>
<path d="M15.5229 6.28881C15.7328 6.44185 15.8456 6.61897 15.9139 6.87053C15.9287 7.00226 15.9287 7.13289 15.9281 7.26535C15.9283 7.30397 15.9286 7.34259 15.9288 7.38239C15.9295 7.50946 15.9293 7.63651 15.9291 7.76358C15.9293 7.85228 15.9295 7.94098 15.9297 8.02967C15.93 8.21535 15.9299 8.40102 15.9296 8.58669C15.9292 8.80066 15.9297 9.01461 15.9306 9.22857C15.9315 9.43524 15.9316 9.64191 15.9314 9.84858C15.9313 9.93614 15.9316 10.0237 15.932 10.1113C15.9325 10.2338 15.9321 10.3564 15.9315 10.479C15.9319 10.5149 15.9322 10.5508 15.9326 10.5878C15.9298 10.8629 15.8567 11.0587 15.714 11.2914C15.4807 11.5184 15.2175 11.5942 14.8995 11.5915C14.6705 11.5707 14.457 11.465 14.2967 11.3002C14.1761 11.1118 14.0817 10.9426 14.0808 10.7154C14.0806 10.6819 14.0804 10.6485 14.0802 10.614C14.0802 10.5774 14.0802 10.5407 14.0801 10.5029C14.0799 10.4643 14.0798 10.4256 14.0796 10.3858C14.0791 10.2576 14.0788 10.1294 14.0786 10.0012C14.0784 9.91219 14.0782 9.82316 14.078 9.73413C14.0777 9.57115 14.0775 9.40818 14.0774 9.2452C14.0772 9.00577 14.0766 8.76635 14.0756 8.52692C14.0747 8.31921 14.0745 8.11151 14.0744 7.90381C14.0743 7.81563 14.074 7.72745 14.0736 7.63928C14.073 7.51574 14.073 7.39223 14.0732 7.26869C14.0729 7.23239 14.0726 7.1961 14.0723 7.1587C14.0741 6.84116 14.1449 6.60487 14.3672 6.37011C14.6857 6.08837 15.162 6.0778 15.5229 6.28881Z" fill="#DF2429"/>
</g>
<defs>
<clipPath id="clip0_82_5333">
<rect width="18" height="18" fill="white" transform="translate(6 6.16748)"/>
</clipPath>
</defs>
</svg>
