<svg width="53" height="43" viewBox="0 0 53 43" fill="none" xmlns="http://www.w3.org/2000/svg">
<path opacity="0.987" fill-rule="evenodd" clip-rule="evenodd" d="M32.4467 2.44609C32.6731 2.41239 32.8456 2.49822 32.9637 2.70358C28.9668 9.75861 30.3458 15.552 37.1003 20.0838C39.3245 21.4662 41.7377 22.1958 44.3393 22.2724C48.5793 24.6272 50.2598 28.2319 49.3808 33.0868C48.3014 36.5652 46.0175 38.8395 42.5296 39.9102C37.8881 40.2786 33.2344 40.4074 28.5686 40.2964C28.4825 36.6017 28.5689 32.9112 28.8271 29.2245C29.9342 29.6932 31.0544 30.1221 32.1881 30.512C33.5855 29.962 33.9733 29.0178 33.3515 27.6796C31.2401 25.7485 29.1289 23.8173 27.0174 21.8862C26.1686 21.6949 25.393 21.8666 24.6906 22.4012C22.9239 24.1607 21.1572 25.9202 19.3906 27.6796C18.6739 28.9992 19.0186 29.9434 20.4247 30.512C21.5727 30.0477 22.7362 29.6187 23.9149 29.2245C24.2568 32.8885 24.2568 36.5361 23.9149 40.1676C19.7784 40.3394 15.6418 40.3394 11.5052 40.1676C5.59016 38.9096 2.78936 35.2618 3.10276 29.2245C3.77092 25.9213 5.62377 23.5182 8.66129 22.015C8.92523 15.0132 12.5447 11.7946 19.5198 12.3593C19.9338 12.4297 20.3216 12.5584 20.6832 12.7455C22.2288 6.6141 26.15 3.18095 32.4467 2.44609Z" fill="#DF2429"/>
<path opacity="0.999" fill-rule="evenodd" clip-rule="evenodd" d="M32.4461 2.4461C37.9216 1.96368 42.1875 4.02355 45.2437 8.62574C46.3225 11.0073 46.6674 13.4964 46.2778 16.0928C45.8631 18.2323 45.2168 20.2922 44.3388 22.2724C41.7371 22.1958 39.3239 21.4662 37.0998 20.0838C30.3452 15.552 28.9662 9.75862 32.9632 2.70358C32.845 2.49823 32.6726 2.4124 32.4461 2.4461Z" fill="#DF2429"/>
</svg>
