<svg width="20" height="20" viewBox="0 0 20 20" fill="none" xmlns="http://www.w3.org/2000/svg">
<g clip-path="url(#clip0_258_12372)">
<path d="M16.2891 2.96874C16.3114 2.9886 16.3337 3.00847 16.3567 3.02893C18.1627 4.64219 19.228 6.96659 19.375 9.37499C19.4645 11.9375 18.6339 14.381 16.8823 16.272C16.1139 17.0875 15.2486 17.7215 14.2578 18.2422C14.2324 18.2558 14.207 18.2693 14.1808 18.2833C13.3362 18.7293 12.3842 18.9916 11.4453 19.1406C11.416 19.1456 11.3868 19.1506 11.3566 19.1558C9.91132 19.3979 8.34087 19.1876 6.96533 18.7231C6.9099 18.7045 6.9099 18.7045 6.85335 18.6856C6.65956 18.6165 6.48918 18.5379 6.31577 18.4268C5.99117 18.2242 5.72249 18.0846 5.33413 18.1707C5.22504 18.1996 5.11718 18.232 5.00916 18.2646C4.94952 18.2814 4.88985 18.2981 4.83013 18.3147C4.70389 18.3498 4.57787 18.3855 4.45194 18.4217C4.16252 18.5042 3.87083 18.578 3.57928 18.6526C3.4159 18.6945 3.25268 18.737 3.08945 18.7794C3.02403 18.7964 2.95862 18.8134 2.8932 18.8304C2.84443 18.8431 2.84443 18.8431 2.79467 18.856C2.66011 18.891 2.52554 18.9259 2.39096 18.9608C2.25932 18.995 2.12768 19.0292 1.99605 19.0634C1.93426 19.0794 1.87247 19.0954 1.81068 19.1115C1.72484 19.1337 1.63902 19.156 1.55319 19.1784C1.52663 19.1852 1.50006 19.1921 1.47269 19.1992C1.28321 19.2486 1.09467 19.3007 0.906649 19.3553C0.820312 19.375 0.820312 19.375 0.664062 19.375C0.765865 18.962 0.872448 18.5506 0.984192 18.1402C0.999571 18.0836 1.01495 18.027 1.03032 17.9703C1.06254 17.8516 1.09481 17.7329 1.12711 17.6142C1.16882 17.4609 1.2104 17.3075 1.25195 17.1542C1.5496 16.0554 1.5496 16.0554 1.7009 15.5302C1.71057 15.4965 1.72024 15.4627 1.7302 15.4279C1.7723 15.2809 1.81492 15.1342 1.85877 14.9877C1.87284 14.939 1.8869 14.8902 1.9014 14.8399C1.91947 14.7792 1.91947 14.7792 1.93791 14.7172C1.95619 14.5876 1.93348 14.5298 1.875 14.414C1.85323 14.3681 1.85323 14.3681 1.83103 14.3212C1.81517 14.2893 1.79932 14.2574 1.78299 14.2245C0.611677 11.8424 0.431738 9.2333 1.28769 6.71519C1.38768 6.43418 1.50756 6.16517 1.64062 5.89842C1.65731 5.86483 1.674 5.83124 1.69119 5.79663C1.89791 5.384 2.11089 4.98319 2.38281 4.60936C2.40995 4.5716 2.43709 4.53383 2.46506 4.49492C3.03643 3.71623 3.70533 2.98663 4.49219 2.42186C4.53277 2.39215 4.57336 2.36244 4.61517 2.33184C5.93641 1.38903 7.48374 0.785648 9.10156 0.624987C9.14436 0.620656 9.18716 0.616326 9.23126 0.611864C11.815 0.390055 14.361 1.24597 16.2891 2.96874ZM4.29199 4.77538C2.97474 6.26768 2.22752 8.28998 2.34924 10.2853C2.43694 11.5667 2.77403 12.9597 3.53189 14.0229C3.55014 14.0488 3.56839 14.0746 3.58719 14.1012C3.61278 14.1351 3.61278 14.1351 3.63889 14.1697C3.7456 14.4546 3.56184 14.8484 3.48373 15.1265C3.46888 15.18 3.45405 15.2336 3.43924 15.2872C3.40044 15.4274 3.36141 15.5675 3.3223 15.7076C3.25953 15.9325 3.19697 16.1574 3.13469 16.3825C3.11293 16.4609 3.09097 16.5393 3.06899 16.6177C3.05583 16.6651 3.04266 16.7126 3.02909 16.7615C3.01741 16.8033 3.00573 16.8452 2.9937 16.8882C2.96419 16.9934 2.96419 16.9934 2.96875 17.1094C3.30399 17.0554 3.62861 16.9743 3.95615 16.8855C4.00857 16.8715 4.06101 16.8575 4.11345 16.8435C4.33407 16.7847 4.5546 16.7256 4.77502 16.666C4.91068 16.6294 5.04643 16.5931 5.18225 16.5571C5.23373 16.5434 5.28517 16.5295 5.33658 16.5155C5.40816 16.4959 5.47987 16.4769 5.5516 16.4579C5.59228 16.447 5.63297 16.436 5.67489 16.4247C5.84555 16.3951 5.94814 16.4452 6.09344 16.5307C7.93297 17.5907 10.0171 17.8937 12.0806 17.3648C13.3521 17.0183 14.482 16.3359 15.4297 15.4297C15.4659 15.3955 15.5021 15.3614 15.5394 15.3262C15.8188 15.056 16.0598 14.766 16.2891 14.4531C16.3053 14.431 16.3216 14.4089 16.3383 14.3861C17.545 12.7186 17.9747 10.6645 17.6775 8.64413C17.4902 7.51065 17.0477 6.39763 16.3672 5.46874C16.3376 5.4281 16.3081 5.38747 16.2776 5.3456C16.0573 5.04849 15.8155 4.77479 15.5599 4.50768C15.5155 4.46115 15.4716 4.41408 15.4279 4.3669C14.0972 2.97081 12.1228 2.27102 10.2344 2.18749C7.93759 2.1377 5.85456 3.12978 4.29199 4.77538Z" fill="black"/>
<path d="M6.94609 5.57861C6.98631 5.57789 6.98631 5.57789 7.02734 5.57716C7.21006 5.57664 7.3682 5.59337 7.53935 5.66406C7.72863 5.8538 7.81634 6.0651 7.91472 6.31164C7.93082 6.35101 7.94693 6.39038 7.96352 6.43093C8.01459 6.55601 8.06507 6.68131 8.11553 6.80664C8.15002 6.89149 8.18456 6.97633 8.21913 7.06115C8.29489 7.24705 8.37026 7.43309 8.44529 7.61927C8.46696 7.67148 8.49064 7.72288 8.51592 7.77343C8.55728 7.96584 8.54316 8.11309 8.44985 8.28766C8.27652 8.54025 8.0845 8.77278 7.87734 8.99871C7.79106 9.13618 7.7912 9.21499 7.81279 9.375C7.87278 9.50593 7.87278 9.50593 7.96172 9.63134C7.97738 9.65467 7.99304 9.678 8.00917 9.70203C8.764 10.8082 9.78258 11.7197 11.055 12.1875C11.2112 12.2018 11.2661 12.2025 11.3992 12.1167C11.6203 11.9117 11.7997 11.662 11.9819 11.423C11.9996 11.3999 12.0172 11.3768 12.0354 11.353C12.0698 11.3078 12.104 11.2624 12.138 11.2169C12.2575 11.0589 12.2575 11.0589 12.344 11.0156C12.7178 10.9858 13.043 11.187 13.3645 11.3501C13.4196 11.3774 13.4746 11.4047 13.5296 11.432C13.6668 11.4999 13.8035 11.5687 13.9401 11.6376C14.0266 11.6811 14.1133 11.7242 14.2001 11.7673C14.2286 11.7814 14.2571 11.7956 14.2865 11.8102C14.3409 11.8372 14.3953 11.8641 14.4497 11.891C14.5601 11.9459 14.6632 12.0018 14.7659 12.0703C14.8959 12.4602 14.768 12.9747 14.6023 13.3374C14.3132 13.8557 13.7321 14.1687 13.1814 14.3402C12.5493 14.4897 11.8543 14.3918 11.2503 14.1797C11.2184 14.1688 11.1865 14.1579 11.1536 14.1467C10.3239 13.8599 9.53758 13.4882 8.82842 12.9687C8.80413 12.951 8.77985 12.9333 8.75483 12.9151C8.3761 12.6356 8.03377 12.3189 7.6956 11.9922C7.67519 11.9726 7.65478 11.9531 7.63375 11.9329C7.37221 11.6817 7.13982 11.4165 6.91435 11.1328C6.85902 11.0669 6.80368 11.001 6.74834 10.9351C5.97037 9.97923 5.22454 8.86428 5.31279 7.57812C5.38464 6.88309 5.6763 6.31184 6.17217 5.82031C6.42235 5.61941 6.6328 5.5789 6.94609 5.57861Z" fill="black"/>
</g>
<defs>
<clipPath id="clip0_258_12372">
<rect width="20" height="20" fill="white"/>
</clipPath>
</defs>
</svg>
